<svg xmlns="http://www.w3.org/2000/svg" xmlns:xlink="http://www.w3.org/1999/xlink" width="940" height="754.72"><rect width="940" height="754.72" rx="5" ry="5" class="a"/><svg y="0%" x="0%"><circle cx="20" cy="20" r="6" fill="#ff5f58"/><circle cx="40" cy="20" r="6" fill="#ffbd2e"/><circle cx="60" cy="20" r="6" fill="#18c132"/></svg><svg height="694.72" viewBox="0 0 90 69.472" width="900" x="15" xmlns="http://www.w3.org/2000/svg" xmlns:xlink="http://www.w3.org/1999/xlink" y="50"><style>@keyframes j{0%{transform:translateX(-540px)}12%{transform:translateX(-630px)}14.5%{transform:translateX(-720px)}14.9%{transform:translateX(-810px)}21.7%{transform:translateX(-900px)}24.2%{transform:translateX(-990px)}31%{transform:translateX(-1080px)}33.5%{transform:translateX(-1170px)}40.3%{transform:translateX(-1260px)}42.8%{transform:translateX(-1350px)}49.6%{transform:translateX(-1440px)}52.1%{transform:translateX(-1530px)}52.5%{transform:translateX(-1620px)}52.9%{transform:translateX(-1710px)}53.3%{transform:translateX(-1800px)}53.7%{transform:translateX(-1890px)}54.1%{transform:translateX(-1980px)}60.9%{transform:translateX(-2070px)}63.4%{transform:translateX(-2160px)}70.2%{transform:translateX(-2250px)}72.7%{transform:translateX(-2340px)}73.1%{transform:translateX(-2430px)}79.9%{transform:translateX(-2520px)}83.9%{transform:translateX(-2790px)}to{transform:translateX(-3420px)}}.a{fill:#282d35}.f{fill:#b9c0cb;white-space:pre}.g{font-weight:700}.g,.h{fill:#a8cc8c;white-space:pre}</style><g font-family="Monaco,Consolas,Menlo,'Bitstream Vera Sans Mono','Powerline Symbols',monospace" font-size="1.67"><defs><symbol id="1"><text x="2.004" y="1.67" class="f">┌─────────────────────────────────────────┐</text></symbol><symbol id="2"><text x="2.004" y="1.67" class="f">│</text><text x="5.01" y="1.67" class="f">Signet</text><text x="12.024" y="1.67" class="f">—</text><text x="14.028" y="1.67" class="f">End-to-End</text><text x="25.05" y="1.67" class="f">Demo</text><text x="44.088" y="1.67" class="f">│</text></symbol><symbol id="3"><text x="2.004" y="1.67" class="f">│</text><text x="5.01" y="1.67" class="f">Sign</text><text x="10.02" y="1.67" class="f">→</text><text x="12.024" y="1.67" class="f">Audit</text><text x="18.036" y="1.67" class="f">→</text><text x="20.04" y="1.67" class="f">Verify</text><text x="27.054" y="1.67" class="f">→</text><text x="29.058" y="1.67" class="f">Dashboard</text><text x="44.088" y="1.67" class="f">│</text></symbol><symbol id="4"><text x="2.004" y="1.67" class="f">└─────────────────────────────────────────┘</text></symbol><symbol id="5"><text y="1.67" class="g">❯</text><text x="2.004" y="1.67" class="f">signet</text><text x="9.018" y="1.67" class="f">identity</text><text x="18.036" y="1.67" class="f">generate</text><text x="27.054" y="1.67" class="f">--name</text><text x="34.068" y="1.67" class="f">my-agent</text><text x="43.086" y="1.67" class="f">--unencrypted</text></symbol><symbol id="6"><text y="1.67" class="f">8BlgTX0ikj+Dkb0yr0NXTK7xrhy6tZbtWJlzbDtIbos=</text></symbol><symbol id="7"><text y="1.67" class="f">Identity</text><text x="9.018" y="1.67" class="f">&apos;my-agent&apos;</text><text x="20.04" y="1.67" class="f">created</text><text x="28.056" y="1.67" class="f">at</text><text x="31.062" y="1.67" class="f">/tmp/tmp.6ORH8qaIcq/keys/</text></symbol><symbol id="8"><text y="1.67" class="g">❯</text><text x="2.004" y="1.67" class="f">signet</text><text x="9.018" y="1.67" class="f">sign</text><text x="14.028" y="1.67" class="f">--key</text><text x="20.04" y="1.67" class="f">my-agent</text><text x="29.058" y="1.67" class="f">--tool</text><text x="36.072" y="1.67" class="f">web_search</text><text x="47.094" y="1.67" class="f">--params</text><text x="56.112" y="1.67" class="f">&apos;{&quot;query&quot;:&quot;signet&quot;}&apos;</text><text x="77.154" y="1.67" class="f">--target</text><text x="86.172" y="1.67" class="f">mcp:</text></symbol><symbol id="9"><text y="1.67" class="f">//search</text></symbol><symbol id="10"><text y="1.67" class="f">{&quot;v&quot;:1,&quot;id&quot;:&quot;rec_0044fffb5f7ba0fdc182456f5ecf701f&quot;,&quot;action&quot;:{&quot;tool&quot;:&quot;web_search&quot;,&quot;params&quot;:</text></symbol><symbol id="11"><text y="1.67" class="f">{&quot;query&quot;:&quot;signet&quot;},&quot;params_hash&quot;:&quot;sha256:d62ef082c559b134a694e2689d184861292157e4eb3428fa5</text></symbol><symbol id="12"><text y="1.67" class="f">69d9ca60f8248cc&quot;,&quot;target&quot;:&quot;mcp://search&quot;,&quot;transport&quot;:&quot;stdio&quot;},&quot;signer&quot;:{&quot;pubkey&quot;:&quot;ed25519:</text></symbol><symbol id="13"><text y="1.67" class="f">8BlgTX0ikj+Dkb0yr0NXTK7xrhy6tZbtWJlzbDtIbos=&quot;,&quot;name&quot;:&quot;my-agent&quot;,&quot;owner&quot;:&quot;&quot;},&quot;ts&quot;:&quot;2026-04-</text></symbol><symbol id="14"><text y="1.67" class="f">08T10:38:31.437Z&quot;,&quot;nonce&quot;:&quot;rnd_9bae4cce65d04cf38a7256306a575b62&quot;,&quot;sig&quot;:&quot;ed25519:ni5n6C/v7o</text></symbol><symbol id="15"><text y="1.67" class="f">oLschZSd/WlFRml52GFxeFYxe7ZG3XnorKaLb6Vaw5bodQGRndj8TdPTlvY3xOe/XwzngAOK4YDA==&quot;}</text></symbol><symbol id="16"><text y="1.67" class="g">❯</text><text x="2.004" y="1.67" class="f">signet</text><text x="9.018" y="1.67" class="f">sign</text><text x="14.028" y="1.67" class="f">--key</text><text x="20.04" y="1.67" class="f">my-agent</text><text x="29.058" y="1.67" class="f">--tool</text><text x="36.072" y="1.67" class="f">github_create_issue</text><text x="56.112" y="1.67" class="f">--params</text><text x="65.13" y="1.67" class="f">&apos;{&quot;title&quot;:&quot;fix</text><text x="80.16" y="1.67" class="f">bug&quot;}&apos;</text><text x="87.174" y="1.67" class="f">--t</text></symbol><symbol id="17"><text y="1.67" class="f">arget</text><text x="6.012" y="1.67" class="f">mcp://github</text></symbol><symbol id="18"><text y="1.67" class="f">{&quot;v&quot;:1,&quot;id&quot;:&quot;rec_8363d1e46e93e3959bf42e9b79f88131&quot;,&quot;action&quot;:{&quot;tool&quot;:&quot;github_create_issue&quot;,</text></symbol><symbol id="19"><text y="1.67" class="f">&quot;params&quot;:{&quot;title&quot;:&quot;fix</text><text x="23.046" y="1.67" class="f">bug&quot;},&quot;params_hash&quot;:&quot;sha256:178554dbc0c433e352129c283b22d2fd6d3e5d5</text></symbol><symbol id="20"><text y="1.67" class="f">2927370e29afbc72a78d583cc&quot;,&quot;target&quot;:&quot;mcp://github&quot;,&quot;transport&quot;:&quot;stdio&quot;},&quot;signer&quot;:{&quot;pubkey&quot;</text></symbol><symbol id="21"><text y="1.67" class="f">:&quot;ed25519:8BlgTX0ikj+Dkb0yr0NXTK7xrhy6tZbtWJlzbDtIbos=&quot;,&quot;name&quot;:&quot;my-agent&quot;,&quot;owner&quot;:&quot;&quot;},&quot;ts&quot;</text></symbol><symbol id="22"><text y="1.67" class="f">:&quot;2026-04-08T10:38:32.597Z&quot;,&quot;nonce&quot;:&quot;rnd_100d51faafbf4b6552ffd3a1b8137b2c&quot;,&quot;sig&quot;:&quot;ed25519:</text></symbol><symbol id="23"><text y="1.67" class="f">39qR80DnoE098SwKuGw5/gX/fFvxFvFt8KFhvysbEq0PDQVywJ4fyiXazdkFSMlGyk9JGPmkovyXdRyPD2y4AA==&quot;}</text></symbol><symbol id="24"><text y="1.67" class="g">❯</text><text x="2.004" y="1.67" class="f">signet</text><text x="9.018" y="1.67" class="f">sign</text><text x="14.028" y="1.67" class="f">--key</text><text x="20.04" y="1.67" class="f">my-agent</text><text x="29.058" y="1.67" class="f">--tool</text><text x="36.072" y="1.67" class="f">file_write</text><text x="47.094" y="1.67" class="f">--params</text><text x="56.112" y="1.67" class="f">&apos;{&quot;path&quot;:&quot;/tmp/out.txt&quot;}&apos;</text><text x="82.164" y="1.67" class="f">--target</text></symbol><symbol id="25"><text x="1.002" y="1.67" class="f">mcp://fs</text></symbol><symbol id="26"><text y="1.67" class="f">{&quot;v&quot;:1,&quot;id&quot;:&quot;rec_43c91bdd943cdcaa75bd41eef70aeb5f&quot;,&quot;action&quot;:{&quot;tool&quot;:&quot;file_write&quot;,&quot;params&quot;:</text></symbol><symbol id="27"><text y="1.67" class="f">{&quot;path&quot;:&quot;/tmp/out.txt&quot;},&quot;params_hash&quot;:&quot;sha256:1bb68c85c9c51b9b733114cb635626545b38b115a266</text></symbol><symbol id="28"><text y="1.67" class="f">f1ce490655bb2fbfa3ff&quot;,&quot;target&quot;:&quot;mcp://fs&quot;,&quot;transport&quot;:&quot;stdio&quot;},&quot;signer&quot;:{&quot;pubkey&quot;:&quot;ed25519</text></symbol><symbol id="29"><text y="1.67" class="f">:8BlgTX0ikj+Dkb0yr0NXTK7xrhy6tZbtWJlzbDtIbos=&quot;,&quot;name&quot;:&quot;my-agent&quot;,&quot;owner&quot;:&quot;&quot;},&quot;ts&quot;:&quot;2026-04</text></symbol><symbol id="30"><text y="1.67" class="f">-08T10:38:33.755Z&quot;,&quot;nonce&quot;:&quot;rnd_c33cc720d7e8931a188aecb80e17d4b5&quot;,&quot;sig&quot;:&quot;ed25519:kcBhQwrp7</text></symbol><symbol id="31"><text y="1.67" class="f">Xi8jOzonHOChM6kNHgc5+Aew5gWA3fxN7DjvAW+r3xQa11UV68cknqT/LmLH0YkikpYG0oZ6ZX2Aw==&quot;}</text></symbol><symbol id="32"><text y="1.67" class="g">❯</text><text x="2.004" y="1.67" class="f">signet</text><text x="9.018" y="1.67" class="f">audit</text></symbol><symbol id="33"><text y="1.67" class="f">TIME</text><text x="31.062" y="1.67" class="f">SIGNER</text><text x="47.094" y="1.67" class="f">TOOL</text><text x="78.156" y="1.67" class="f">TARGET</text></symbol><symbol id="34"><text y="1.67" class="f">------------------------------------------------------------------------------------------</text></symbol><symbol id="35"><text y="1.67" class="f">2026-04-08T10:38:31.437Z</text><text x="31.062" y="1.67" class="f">my-agent</text><text x="47.094" y="1.67" class="f">web_search</text><text x="78.156" y="1.67" class="f">mcp://search</text></symbol><symbol id="36"><text y="1.67" class="f">2026-04-08T10:38:32.597Z</text><text x="31.062" y="1.67" class="f">my-agent</text><text x="47.094" y="1.67" class="f">github_create_issue</text><text x="78.156" y="1.67" class="f">mcp://github</text></symbol><symbol id="37"><text y="1.67" class="f">2026-04-08T10:38:33.755Z</text><text x="31.062" y="1.67" class="f">my-agent</text><text x="47.094" y="1.67" class="f">file_write</text><text x="78.156" y="1.67" class="f">mcp://fs</text></symbol><symbol id="38"><text y="1.67" class="f">3</text><text x="2.004" y="1.67" class="f">records</text></symbol><symbol id="39"><text y="1.67" class="g">❯</text><text x="2.004" y="1.67" class="f">signet</text><text x="9.018" y="1.67" class="f">audit</text><text x="15.03" y="1.67" class="f">--verify</text></symbol><symbol id="40"><text y="1.67" class="f">3/3</text><text x="4.008" y="1.67" class="f">signatures</text><text x="15.03" y="1.67" class="f">valid</text></symbol><symbol id="41"><text y="1.67" class="g">❯</text><text x="2.004" y="1.67" class="f">signet</text><text x="9.018" y="1.67" class="f">verify</text><text x="16.032" y="1.67" class="f">--chain</text></symbol><symbol id="42"><text y="1.67" class="f">Chain</text><text x="6.012" y="1.67" class="f">intact:</text><text x="14.028" y="1.67" class="f">3</text><text x="16.032" y="1.67" class="f">records</text><text x="24.048" y="1.67" class="f">verified</text></symbol><symbol id="43"><text y="1.67" class="f">Verifying</text><text x="10.02" y="1.67" class="f">chain</text><text x="16.032" y="1.67" class="f">integrity...</text></symbol><symbol id="44"><text y="1.67" class="g">❯</text><text x="2.004" y="1.67" class="f">signet</text><text x="9.018" y="1.67" class="f">dashboard</text><text x="19.038" y="1.67" class="f">--open</text></symbol><symbol id="45"><text x="2.004" y="1.67" class="f">Signet</text><text x="9.018" y="1.67" class="f">Dashboard:</text><text x="20.04" y="1.67" class="f">http://localhost:9191</text></symbol><symbol id="46"><text x="2.004" y="1.67" class="f">→</text><text x="4.008" y="1.67" class="f">Timeline,</text><text x="14.028" y="1.67" class="f">Chain</text><text x="20.04" y="1.67" class="f">Integrity,</text><text x="31.062" y="1.67" class="f">Signatures,</text><text x="43.086" y="1.67" class="f">Stats</text></symbol><symbol id="47"><text x="2.004" y="1.67" class="h">✓</text><text x="4.008" y="1.67" class="f">Every</text><text x="10.02" y="1.67" class="f">tool</text><text x="15.03" y="1.67" class="f">call</text><text x="20.04" y="1.67" class="f">signed</text><text x="27.054" y="1.67" class="f">with</text><text x="32.064" y="1.67" class="f">Ed25519</text></symbol><symbol id="48"><text x="2.004" y="1.67" class="h">✓</text><text x="4.008" y="1.67" class="f">Hash-chained</text><text x="17.034" y="1.67" class="f">audit</text><text x="23.046" y="1.67" class="f">log</text></symbol><symbol id="49"><text x="2.004" y="1.67" class="h">✓</text><text x="4.008" y="1.67" class="f">Offline</text><text x="12.024" y="1.67" class="f">verification</text></symbol><symbol id="50"><text x="2.004" y="1.67" class="h">✓</text><text x="4.008" y="1.67" class="f">Local</text><text x="10.02" y="1.67" class="f">web</text><text x="14.028" y="1.67" class="f">dashboard</text></symbol><symbol id="51"><text x="2.004" y="1.67" class="f">github.com/Prismer-AI/signet</text></symbol><symbol id="a"><path fill="transparent" d="M0 0h90v33H0z"/></symbol></defs><path class="a" d="M0 0h90v69.472H0z"/><g style="animation-duration:12.467436s;animation-iteration-count:infinite;animation-name:j;animation-timing-function:steps(1,end)"><svg width="3510"><svg><use xlink:href="#a"/></svg><svg x="90"><use xlink:href="#a"/></svg><svg x="180"><use xlink:href="#a"/><use xlink:href="#1" y="2.171"/></svg><svg x="270"><use xlink:href="#a"/><use xlink:href="#1" y="2.171"/><use xlink:href="#2" y="4.342"/></svg><svg x="360"><use xlink:href="#a"/><use xlink:href="#1" y="2.171"/><use xlink:href="#2" y="4.342"/><use xlink:href="#3" y="6.513"/></svg><svg x="450"><use xlink:href="#a"/><use xlink:href="#1" y="2.171"/><use xlink:href="#2" y="4.342"/><use xlink:href="#3" y="6.513"/><use xlink:href="#4" y="8.684"/></svg><svg x="540"><use xlink:href="#a"/><use xlink:href="#1" y="2.171"/><use xlink:href="#2" y="4.342"/><use xlink:href="#3" y="6.513"/><use xlink:href="#4" y="8.684"/></svg><svg x="630"><use xlink:href="#a"/><use xlink:href="#1" y="2.171"/><use xlink:href="#2" y="4.342"/><use xlink:href="#3" y="6.513"/><use xlink:href="#4" y="8.684"/><use xlink:href="#5" y="15.197"/></svg><svg x="720"><use xlink:href="#a"/><use xlink:href="#1" y="2.171"/><use xlink:href="#2" y="4.342"/><use xlink:href="#3" y="6.513"/><use xlink:href="#4" y="8.684"/><use xlink:href="#5" y="15.197"/><use xlink:href="#6" y="17.368"/></svg><svg x="810"><use xlink:href="#a"/><use xlink:href="#1" y="2.171"/><use xlink:href="#2" y="4.342"/><use xlink:href="#3" y="6.513"/><use xlink:href="#4" y="8.684"/><use xlink:href="#5" y="15.197"/><use xlink:href="#6" y="17.368"/><use xlink:href="#7" y="19.539"/></svg><svg x="900"><use xlink:href="#a"/><use xlink:href="#1" y="2.171"/><use xlink:href="#2" y="4.342"/><use xlink:href="#3" y="6.513"/><use xlink:href="#4" y="8.684"/><use xlink:href="#5" y="15.197"/><use xlink:href="#6" y="17.368"/><use xlink:href="#7" y="19.539"/><use xlink:href="#8" y="23.881"/><use xlink:href="#9" y="26.052"/></svg><svg x="990"><use xlink:href="#a"/><use xlink:href="#1" y="2.171"/><use xlink:href="#2" y="4.342"/><use xlink:href="#3" y="6.513"/><use xlink:href="#4" y="8.684"/><use xlink:href="#5" y="15.197"/><use xlink:href="#6" y="17.368"/><use xlink:href="#7" y="19.539"/><use xlink:href="#8" y="23.881"/><use xlink:href="#9" y="26.052"/><use xlink:href="#10" y="28.223"/><use xlink:href="#11" y="30.394"/><use xlink:href="#12" y="32.565"/><use xlink:href="#13" y="34.736"/><use xlink:href="#14" y="36.907"/><use xlink:href="#15" y="39.078"/></svg><svg x="1080"><use xlink:href="#a"/><use xlink:href="#1" y="2.171"/><use xlink:href="#2" y="4.342"/><use xlink:href="#3" y="6.513"/><use xlink:href="#4" y="8.684"/><use xlink:href="#5" y="15.197"/><use xlink:href="#6" y="17.368"/><use xlink:href="#7" y="19.539"/><use xlink:href="#8" y="23.881"/><use xlink:href="#9" y="26.052"/><use xlink:href="#10" y="28.223"/><use xlink:href="#11" y="30.394"/><use xlink:href="#12" y="32.565"/><use xlink:href="#13" y="34.736"/><use xlink:href="#14" y="36.907"/><use xlink:href="#15" y="39.078"/><use xlink:href="#16" y="43.42"/><use xlink:href="#17" y="45.591"/></svg><svg x="1170"><use xlink:href="#a"/><use xlink:href="#1" y="2.171"/><use xlink:href="#2" y="4.342"/><use xlink:href="#3" y="6.513"/><use xlink:href="#4" y="8.684"/><use xlink:href="#5" y="15.197"/><use xlink:href="#6" y="17.368"/><use xlink:href="#7" y="19.539"/><use xlink:href="#8" y="23.881"/><use xlink:href="#9" y="26.052"/><use xlink:href="#10" y="28.223"/><use xlink:href="#11" y="30.394"/><use xlink:href="#12" y="32.565"/><use xlink:href="#13" y="34.736"/><use xlink:href="#14" y="36.907"/><use xlink:href="#15" y="39.078"/><use xlink:href="#16" y="43.42"/><use xlink:href="#17" y="45.591"/><use xlink:href="#18" y="47.762"/><use xlink:href="#19" y="49.933"/><use xlink:href="#20" y="52.104"/><use xlink:href="#21" y="54.275"/><use xlink:href="#22" y="56.446"/><use xlink:href="#23" y="58.617"/></svg><svg x="1260"><use xlink:href="#a"/><use xlink:href="#1" y="2.171"/><use xlink:href="#2" y="4.342"/><use xlink:href="#3" y="6.513"/><use xlink:href="#4" y="8.684"/><use xlink:href="#5" y="15.197"/><use xlink:href="#6" y="17.368"/><use xlink:href="#7" y="19.539"/><use xlink:href="#8" y="23.881"/><use xlink:href="#9" y="26.052"/><use xlink:href="#10" y="28.223"/><use xlink:href="#11" y="30.394"/><use xlink:href="#12" y="32.565"/><use xlink:href="#13" y="34.736"/><use xlink:href="#14" y="36.907"/><use xlink:href="#15" y="39.078"/><use xlink:href="#16" y="43.42"/><use xlink:href="#17" y="45.591"/><use xlink:href="#18" y="47.762"/><use xlink:href="#19" y="49.933"/><use xlink:href="#20" y="52.104"/><use xlink:href="#21" y="54.275"/><use xlink:href="#22" y="56.446"/><use xlink:href="#23" y="58.617"/><use xlink:href="#24" y="62.959"/><use xlink:href="#25" y="65.13"/></svg><svg x="1350"><use xlink:href="#a"/><use xlink:href="#5" y="4.342"/><use xlink:href="#6" y="6.513"/><use xlink:href="#7" y="8.684"/><use xlink:href="#8" y="13.026"/><use xlink:href="#9" y="15.197"/><use xlink:href="#10" y="17.368"/><use xlink:href="#11" y="19.539"/><use xlink:href="#12" y="21.71"/><use xlink:href="#13" y="23.881"/><use xlink:href="#14" y="26.052"/><use xlink:href="#15" y="28.223"/><use xlink:href="#16" y="32.565"/><use xlink:href="#17" y="34.736"/><use xlink:href="#18" y="36.907"/><use xlink:href="#19" y="39.078"/><use xlink:href="#20" y="41.249"/><use xlink:href="#21" y="43.42"/><use xlink:href="#22" y="45.591"/><use xlink:href="#23" y="47.762"/><use xlink:href="#24" y="52.104"/><use xlink:href="#25" y="54.275"/><use xlink:href="#26" y="56.446"/><use xlink:href="#27" y="58.617"/><use xlink:href="#28" y="60.788"/><use xlink:href="#29" y="62.959"/><use xlink:href="#30" y="65.13"/><use xlink:href="#31" y="67.301"/></svg><svg x="1440"><use xlink:href="#a"/><use xlink:href="#5"/><use xlink:href="#6" y="2.171"/><use xlink:href="#7" y="4.342"/><use xlink:href="#8" y="8.684"/><use xlink:href="#9" y="10.855"/><use xlink:href="#10" y="13.026"/><use xlink:href="#11" y="15.197"/><use xlink:href="#12" y="17.368"/><use xlink:href="#13" y="19.539"/><use xlink:href="#14" y="21.71"/><use xlink:href="#15" y="23.881"/><use xlink:href="#16" y="28.223"/><use xlink:href="#17" y="30.394"/><use xlink:href="#18" y="32.565"/><use xlink:href="#19" y="34.736"/><use xlink:href="#20" y="36.907"/><use xlink:href="#21" y="39.078"/><use xlink:href="#22" y="41.249"/><use xlink:href="#23" y="43.42"/><use xlink:href="#24" y="47.762"/><use xlink:href="#25" y="49.933"/><use xlink:href="#26" y="52.104"/><use xlink:href="#27" y="54.275"/><use xlink:href="#28" y="56.446"/><use xlink:href="#29" y="58.617"/><use xlink:href="#30" y="60.788"/><use xlink:href="#31" y="62.959"/><use xlink:href="#32" y="67.301"/></svg><svg x="1530"><use xlink:href="#a"/><use xlink:href="#6"/><use xlink:href="#7" y="2.171"/><use xlink:href="#8" y="6.513"/><use xlink:href="#9" y="8.684"/><use xlink:href="#10" y="10.855"/><use xlink:href="#11" y="13.026"/><use xlink:href="#12" y="15.197"/><use xlink:href="#13" y="17.368"/><use xlink:href="#14" y="19.539"/><use xlink:href="#15" y="21.71"/><use xlink:href="#16" y="26.052"/><use xlink:href="#17" y="28.223"/><use xlink:href="#18" y="30.394"/><use xlink:href="#19" y="32.565"/><use xlink:href="#20" y="34.736"/><use xlink:href="#21" y="36.907"/><use xlink:href="#22" y="39.078"/><use xlink:href="#23" y="41.249"/><use xlink:href="#24" y="45.591"/><use xlink:href="#25" y="47.762"/><use xlink:href="#26" y="49.933"/><use xlink:href="#27" y="52.104"/><use xlink:href="#28" y="54.275"/><use xlink:href="#29" y="56.446"/><use xlink:href="#30" y="58.617"/><use xlink:href="#31" y="60.788"/><use xlink:href="#32" y="65.13"/><use xlink:href="#33" y="67.301"/></svg><svg x="1620"><use xlink:href="#a"/><use xlink:href="#7"/><use xlink:href="#8" y="4.342"/><use xlink:href="#9" y="6.513"/><use xlink:href="#10" y="8.684"/><use xlink:href="#11" y="10.855"/><use xlink:href="#12" y="13.026"/><use xlink:href="#13" y="15.197"/><use xlink:href="#14" y="17.368"/><use xlink:href="#15" y="19.539"/><use xlink:href="#16" y="23.881"/><use xlink:href="#17" y="26.052"/><use xlink:href="#18" y="28.223"/><use xlink:href="#19" y="30.394"/><use xlink:href="#20" y="32.565"/><use xlink:href="#21" y="34.736"/><use xlink:href="#22" y="36.907"/><use xlink:href="#23" y="39.078"/><use xlink:href="#24" y="43.42"/><use xlink:href="#25" y="45.591"/><use xlink:href="#26" y="47.762"/><use xlink:href="#27" y="49.933"/><use xlink:href="#28" y="52.104"/><use xlink:href="#29" y="54.275"/><use xlink:href="#30" y="56.446"/><use xlink:href="#31" y="58.617"/><use xlink:href="#32" y="62.959"/><use xlink:href="#33" y="65.13"/><use xlink:href="#34" y="67.301"/></svg><svg x="1710"><use xlink:href="#a"/><use xlink:href="#8" y="2.171"/><use xlink:href="#9" y="4.342"/><use xlink:href="#10" y="6.513"/><use xlink:href="#11" y="8.684"/><use xlink:href="#12" y="10.855"/><use xlink:href="#13" y="13.026"/><use xlink:href="#14" y="15.197"/><use xlink:href="#15" y="17.368"/><use xlink:href="#16" y="21.71"/><use xlink:href="#17" y="23.881"/><use xlink:href="#18" y="26.052"/><use xlink:href="#19" y="28.223"/><use xlink:href="#20" y="30.394"/><use xlink:href="#21" y="32.565"/><use xlink:href="#22" y="34.736"/><use xlink:href="#23" y="36.907"/><use xlink:href="#24" y="41.249"/><use xlink:href="#25" y="43.42"/><use xlink:href="#26" y="45.591"/><use xlink:href="#27" y="47.762"/><use xlink:href="#28" y="49.933"/><use xlink:href="#29" y="52.104"/><use xlink:href="#30" y="54.275"/><use xlink:href="#31" y="56.446"/><use xlink:href="#32" y="60.788"/><use xlink:href="#33" y="62.959"/><use xlink:href="#34" y="65.13"/><use xlink:href="#35" y="67.301"/></svg><svg x="1800"><use xlink:href="#a"/><use xlink:href="#8"/><use xlink:href="#9" y="2.171"/><use xlink:href="#10" y="4.342"/><use xlink:href="#11" y="6.513"/><use xlink:href="#12" y="8.684"/><use xlink:href="#13" y="10.855"/><use xlink:href="#14" y="13.026"/><use xlink:href="#15" y="15.197"/><use xlink:href="#16" y="19.539"/><use xlink:href="#17" y="21.71"/><use xlink:href="#18" y="23.881"/><use xlink:href="#19" y="26.052"/><use xlink:href="#20" y="28.223"/><use xlink:href="#21" y="30.394"/><use xlink:href="#22" y="32.565"/><use xlink:href="#23" y="34.736"/><use xlink:href="#24" y="39.078"/><use xlink:href="#25" y="41.249"/><use xlink:href="#26" y="43.42"/><use xlink:href="#27" y="45.591"/><use xlink:href="#28" y="47.762"/><use xlink:href="#29" y="49.933"/><use xlink:href="#30" y="52.104"/><use xlink:href="#31" y="54.275"/><use xlink:href="#32" y="58.617"/><use xlink:href="#33" y="60.788"/><use xlink:href="#34" y="62.959"/><use xlink:href="#35" y="65.13"/><use xlink:href="#36" y="67.301"/></svg><svg x="1890"><use xlink:href="#a"/><use xlink:href="#9"/><use xlink:href="#10" y="2.171"/><use xlink:href="#11" y="4.342"/><use xlink:href="#12" y="6.513"/><use xlink:href="#13" y="8.684"/><use xlink:href="#14" y="10.855"/><use xlink:href="#15" y="13.026"/><use xlink:href="#16" y="17.368"/><use xlink:href="#17" y="19.539"/><use xlink:href="#18" y="21.71"/><use xlink:href="#19" y="23.881"/><use xlink:href="#20" y="26.052"/><use xlink:href="#21" y="28.223"/><use xlink:href="#22" y="30.394"/><use xlink:href="#23" y="32.565"/><use xlink:href="#24" y="36.907"/><use xlink:href="#25" y="39.078"/><use xlink:href="#26" y="41.249"/><use xlink:href="#27" y="43.42"/><use xlink:href="#28" y="45.591"/><use xlink:href="#29" y="47.762"/><use xlink:href="#30" y="49.933"/><use xlink:href="#31" y="52.104"/><use xlink:href="#32" y="56.446"/><use xlink:href="#33" y="58.617"/><use xlink:href="#34" y="60.788"/><use xlink:href="#35" y="62.959"/><use xlink:href="#36" y="65.13"/><use xlink:href="#37" y="67.301"/></svg><svg x="1980"><use xlink:href="#a"/><use xlink:href="#10"/><use xlink:href="#11" y="2.171"/><use xlink:href="#12" y="4.342"/><use xlink:href="#13" y="6.513"/><use xlink:href="#14" y="8.684"/><use xlink:href="#15" y="10.855"/><use xlink:href="#16" y="15.197"/><use xlink:href="#17" y="17.368"/><use xlink:href="#18" y="19.539"/><use xlink:href="#19" y="21.71"/><use xlink:href="#20" y="23.881"/><use xlink:href="#21" y="26.052"/><use xlink:href="#22" y="28.223"/><use xlink:href="#23" y="30.394"/><use xlink:href="#24" y="34.736"/><use xlink:href="#25" y="36.907"/><use xlink:href="#26" y="39.078"/><use xlink:href="#27" y="41.249"/><use xlink:href="#28" y="43.42"/><use xlink:href="#29" y="45.591"/><use xlink:href="#30" y="47.762"/><use xlink:href="#31" y="49.933"/><use xlink:href="#32" y="54.275"/><use xlink:href="#33" y="56.446"/><use xlink:href="#34" y="58.617"/><use xlink:href="#35" y="60.788"/><use xlink:href="#36" y="62.959"/><use xlink:href="#37" y="65.13"/><use xlink:href="#38" y="67.301"/></svg><svg x="2070"><use xlink:href="#a"/><use xlink:href="#12"/><use xlink:href="#13" y="2.171"/><use xlink:href="#14" y="4.342"/><use xlink:href="#15" y="6.513"/><use xlink:href="#16" y="10.855"/><use xlink:href="#17" y="13.026"/><use xlink:href="#18" y="15.197"/><use xlink:href="#19" y="17.368"/><use xlink:href="#20" y="19.539"/><use xlink:href="#21" y="21.71"/><use xlink:href="#22" y="23.881"/><use xlink:href="#23" y="26.052"/><use xlink:href="#24" y="30.394"/><use xlink:href="#25" y="32.565"/><use xlink:href="#26" y="34.736"/><use xlink:href="#27" y="36.907"/><use xlink:href="#28" y="39.078"/><use xlink:href="#29" y="41.249"/><use xlink:href="#30" y="43.42"/><use xlink:href="#31" y="45.591"/><use xlink:href="#32" y="49.933"/><use xlink:href="#33" y="52.104"/><use xlink:href="#34" y="54.275"/><use xlink:href="#35" y="56.446"/><use xlink:href="#36" y="58.617"/><use xlink:href="#37" y="60.788"/><use xlink:href="#38" y="62.959"/><use xlink:href="#39" y="67.301"/></svg><svg x="2160"><use xlink:href="#a"/><use xlink:href="#13"/><use xlink:href="#14" y="2.171"/><use xlink:href="#15" y="4.342"/><use xlink:href="#16" y="8.684"/><use xlink:href="#17" y="10.855"/><use xlink:href="#18" y="13.026"/><use xlink:href="#19" y="15.197"/><use xlink:href="#20" y="17.368"/><use xlink:href="#21" y="19.539"/><use xlink:href="#22" y="21.71"/><use xlink:href="#23" y="23.881"/><use xlink:href="#24" y="28.223"/><use xlink:href="#25" y="30.394"/><use xlink:href="#26" y="32.565"/><use xlink:href="#27" y="34.736"/><use xlink:href="#28" y="36.907"/><use xlink:href="#29" y="39.078"/><use xlink:href="#30" y="41.249"/><use xlink:href="#31" y="43.42"/><use xlink:href="#32" y="47.762"/><use xlink:href="#33" y="49.933"/><use xlink:href="#34" y="52.104"/><use xlink:href="#35" y="54.275"/><use xlink:href="#36" y="56.446"/><use xlink:href="#37" y="58.617"/><use xlink:href="#38" y="60.788"/><use xlink:href="#39" y="65.13"/><use xlink:href="#40" y="67.301"/></svg><svg x="2250"><use xlink:href="#a"/><use xlink:href="#15"/><use xlink:href="#16" y="4.342"/><use xlink:href="#17" y="6.513"/><use xlink:href="#18" y="8.684"/><use xlink:href="#19" y="10.855"/><use xlink:href="#20" y="13.026"/><use xlink:href="#21" y="15.197"/><use xlink:href="#22" y="17.368"/><use xlink:href="#23" y="19.539"/><use xlink:href="#24" y="23.881"/><use xlink:href="#25" y="26.052"/><use xlink:href="#26" y="28.223"/><use xlink:href="#27" y="30.394"/><use xlink:href="#28" y="32.565"/><use xlink:href="#29" y="34.736"/><use xlink:href="#30" y="36.907"/><use xlink:href="#31" y="39.078"/><use xlink:href="#32" y="43.42"/><use xlink:href="#33" y="45.591"/><use xlink:href="#34" y="47.762"/><use xlink:href="#35" y="49.933"/><use xlink:href="#36" y="52.104"/><use xlink:href="#37" y="54.275"/><use xlink:href="#38" y="56.446"/><use xlink:href="#39" y="60.788"/><use xlink:href="#40" y="62.959"/><use xlink:href="#41" y="67.301"/></svg><svg x="2340"><use xlink:href="#a"/><use xlink:href="#16" y="2.171"/><use xlink:href="#17" y="4.342"/><use xlink:href="#18" y="6.513"/><use xlink:href="#19" y="8.684"/><use xlink:href="#20" y="10.855"/><use xlink:href="#21" y="13.026"/><use xlink:href="#22" y="15.197"/><use xlink:href="#23" y="17.368"/><use xlink:href="#24" y="21.71"/><use xlink:href="#25" y="23.881"/><use xlink:href="#26" y="26.052"/><use xlink:href="#27" y="28.223"/><use xlink:href="#28" y="30.394"/><use xlink:href="#29" y="32.565"/><use xlink:href="#30" y="34.736"/><use xlink:href="#31" y="36.907"/><use xlink:href="#32" y="41.249"/><use xlink:href="#33" y="43.42"/><use xlink:href="#34" y="45.591"/><use xlink:href="#35" y="47.762"/><use xlink:href="#36" y="49.933"/><use xlink:href="#37" y="52.104"/><use xlink:href="#38" y="54.275"/><use xlink:href="#39" y="58.617"/><use xlink:href="#40" y="60.788"/><use xlink:href="#41" y="65.13"/><use xlink:href="#42" y="67.301"/></svg><svg x="2430"><use xlink:href="#a"/><use xlink:href="#16"/><use xlink:href="#17" y="2.171"/><use xlink:href="#18" y="4.342"/><use xlink:href="#19" y="6.513"/><use xlink:href="#20" y="8.684"/><use xlink:href="#21" y="10.855"/><use xlink:href="#22" y="13.026"/><use xlink:href="#23" y="15.197"/><use xlink:href="#24" y="19.539"/><use xlink:href="#25" y="21.71"/><use xlink:href="#26" y="23.881"/><use xlink:href="#27" y="26.052"/><use xlink:href="#28" y="28.223"/><use xlink:href="#29" y="30.394"/><use xlink:href="#30" y="32.565"/><use xlink:href="#31" y="34.736"/><use xlink:href="#32" y="39.078"/><use xlink:href="#33" y="41.249"/><use xlink:href="#34" y="43.42"/><use xlink:href="#35" y="45.591"/><use xlink:href="#36" y="47.762"/><use xlink:href="#37" y="49.933"/><use xlink:href="#38" y="52.104"/><use xlink:href="#39" y="56.446"/><use xlink:href="#40" y="58.617"/><use xlink:href="#41" y="62.959"/><use xlink:href="#42" y="65.13"/><use xlink:href="#43" y="67.301"/></svg><svg x="2520"><use xlink:href="#a"/><use xlink:href="#18"/><use xlink:href="#19" y="2.171"/><use xlink:href="#20" y="4.342"/><use xlink:href="#21" y="6.513"/><use xlink:href="#22" y="8.684"/><use xlink:href="#23" y="10.855"/><use xlink:href="#24" y="15.197"/><use xlink:href="#25" y="17.368"/><use xlink:href="#26" y="19.539"/><use xlink:href="#27" y="21.71"/><use xlink:href="#28" y="23.881"/><use xlink:href="#29" y="26.052"/><use xlink:href="#30" y="28.223"/><use xlink:href="#31" y="30.394"/><use xlink:href="#32" y="34.736"/><use xlink:href="#33" y="36.907"/><use xlink:href="#34" y="39.078"/><use xlink:href="#35" y="41.249"/><use xlink:href="#36" y="43.42"/><use xlink:href="#37" y="45.591"/><use xlink:href="#38" y="47.762"/><use xlink:href="#39" y="52.104"/><use xlink:href="#40" y="54.275"/><use xlink:href="#41" y="58.617"/><use xlink:href="#42" y="60.788"/><use xlink:href="#43" y="62.959"/><use xlink:href="#44" y="67.301"/></svg><svg x="2610"><use xlink:href="#a"/><use xlink:href="#19"/><use xlink:href="#20" y="2.171"/><use xlink:href="#21" y="4.342"/><use xlink:href="#22" y="6.513"/><use xlink:href="#23" y="8.684"/><use xlink:href="#24" y="13.026"/><use xlink:href="#25" y="15.197"/><use xlink:href="#26" y="17.368"/><use xlink:href="#27" y="19.539"/><use xlink:href="#28" y="21.71"/><use xlink:href="#29" y="23.881"/><use xlink:href="#30" y="26.052"/><use xlink:href="#31" y="28.223"/><use xlink:href="#32" y="32.565"/><use xlink:href="#33" y="34.736"/><use xlink:href="#34" y="36.907"/><use xlink:href="#35" y="39.078"/><use xlink:href="#36" y="41.249"/><use xlink:href="#37" y="43.42"/><use xlink:href="#38" y="45.591"/><use xlink:href="#39" y="49.933"/><use xlink:href="#40" y="52.104"/><use xlink:href="#41" y="56.446"/><use xlink:href="#42" y="58.617"/><use xlink:href="#43" y="60.788"/><use xlink:href="#44" y="65.13"/><use xlink:href="#45" y="67.301"/></svg><svg x="2700"><use xlink:href="#a"/><use xlink:href="#20"/><use xlink:href="#21" y="2.171"/><use xlink:href="#22" y="4.342"/><use xlink:href="#23" y="6.513"/><use xlink:href="#24" y="10.855"/><use xlink:href="#25" y="13.026"/><use xlink:href="#26" y="15.197"/><use xlink:href="#27" y="17.368"/><use xlink:href="#28" y="19.539"/><use xlink:href="#29" y="21.71"/><use xlink:href="#30" y="23.881"/><use xlink:href="#31" y="26.052"/><use xlink:href="#32" y="30.394"/><use xlink:href="#33" y="32.565"/><use xlink:href="#34" y="34.736"/><use xlink:href="#35" y="36.907"/><use xlink:href="#36" y="39.078"/><use xlink:href="#37" y="41.249"/><use xlink:href="#38" y="43.42"/><use xlink:href="#39" y="47.762"/><use xlink:href="#40" y="49.933"/><use xlink:href="#41" y="54.275"/><use xlink:href="#42" y="56.446"/><use xlink:href="#43" y="58.617"/><use xlink:href="#44" y="62.959"/><use xlink:href="#45" y="65.13"/><use xlink:href="#46" y="67.301"/></svg><svg x="2790"><use xlink:href="#a"/><use xlink:href="#21"/><use xlink:href="#22" y="2.171"/><use xlink:href="#23" y="4.342"/><use xlink:href="#24" y="8.684"/><use xlink:href="#25" y="10.855"/><use xlink:href="#26" y="13.026"/><use xlink:href="#27" y="15.197"/><use xlink:href="#28" y="17.368"/><use xlink:href="#29" y="19.539"/><use xlink:href="#30" y="21.71"/><use xlink:href="#31" y="23.881"/><use xlink:href="#32" y="28.223"/><use xlink:href="#33" y="30.394"/><use xlink:href="#34" y="32.565"/><use xlink:href="#35" y="34.736"/><use xlink:href="#36" y="36.907"/><use xlink:href="#37" y="39.078"/><use xlink:href="#38" y="41.249"/><use xlink:href="#39" y="45.591"/><use xlink:href="#40" y="47.762"/><use xlink:href="#41" y="52.104"/><use xlink:href="#42" y="54.275"/><use xlink:href="#43" y="56.446"/><use xlink:href="#44" y="60.788"/><use xlink:href="#45" y="62.959"/><use xlink:href="#46" y="65.13"/></svg><svg x="2880"><use xlink:href="#a"/><use xlink:href="#22"/><use xlink:href="#23" y="2.171"/><use xlink:href="#24" y="6.513"/><use xlink:href="#25" y="8.684"/><use xlink:href="#26" y="10.855"/><use xlink:href="#27" y="13.026"/><use xlink:href="#28" y="15.197"/><use xlink:href="#29" y="17.368"/><use xlink:href="#30" y="19.539"/><use xlink:href="#31" y="21.71"/><use xlink:href="#32" y="26.052"/><use xlink:href="#33" y="28.223"/><use xlink:href="#34" y="30.394"/><use xlink:href="#35" y="32.565"/><use xlink:href="#36" y="34.736"/><use xlink:href="#37" y="36.907"/><use xlink:href="#38" y="39.078"/><use xlink:href="#39" y="43.42"/><use xlink:href="#40" y="45.591"/><use xlink:href="#41" y="49.933"/><use xlink:href="#42" y="52.104"/><use xlink:href="#43" y="54.275"/><use xlink:href="#44" y="58.617"/><use xlink:href="#45" y="60.788"/><use xlink:href="#46" y="62.959"/><use xlink:href="#47" y="67.301"/></svg><svg x="2970"><use xlink:href="#a"/><use xlink:href="#23"/><use xlink:href="#24" y="4.342"/><use xlink:href="#25" y="6.513"/><use xlink:href="#26" y="8.684"/><use xlink:href="#27" y="10.855"/><use xlink:href="#28" y="13.026"/><use xlink:href="#29" y="15.197"/><use xlink:href="#30" y="17.368"/><use xlink:href="#31" y="19.539"/><use xlink:href="#32" y="23.881"/><use xlink:href="#33" y="26.052"/><use xlink:href="#34" y="28.223"/><use xlink:href="#35" y="30.394"/><use xlink:href="#36" y="32.565"/><use xlink:href="#37" y="34.736"/><use xlink:href="#38" y="36.907"/><use xlink:href="#39" y="41.249"/><use xlink:href="#40" y="43.42"/><use xlink:href="#41" y="47.762"/><use xlink:href="#42" y="49.933"/><use xlink:href="#43" y="52.104"/><use xlink:href="#44" y="56.446"/><use xlink:href="#45" y="58.617"/><use xlink:href="#46" y="60.788"/><use xlink:href="#47" y="65.13"/><use xlink:href="#48" y="67.301"/></svg><svg x="3060"><use xlink:href="#a"/><use xlink:href="#24" y="2.171"/><use xlink:href="#25" y="4.342"/><use xlink:href="#26" y="6.513"/><use xlink:href="#27" y="8.684"/><use xlink:href="#28" y="10.855"/><use xlink:href="#29" y="13.026"/><use xlink:href="#30" y="15.197"/><use xlink:href="#31" y="17.368"/><use xlink:href="#32" y="21.71"/><use xlink:href="#33" y="23.881"/><use xlink:href="#34" y="26.052"/><use xlink:href="#35" y="28.223"/><use xlink:href="#36" y="30.394"/><use xlink:href="#37" y="32.565"/><use xlink:href="#38" y="34.736"/><use xlink:href="#39" y="39.078"/><use xlink:href="#40" y="41.249"/><use xlink:href="#41" y="45.591"/><use xlink:href="#42" y="47.762"/><use xlink:href="#43" y="49.933"/><use xlink:href="#44" y="54.275"/><use xlink:href="#45" y="56.446"/><use xlink:href="#46" y="58.617"/><use xlink:href="#47" y="62.959"/><use xlink:href="#48" y="65.13"/><use xlink:href="#49" y="67.301"/></svg><svg x="3150"><use xlink:href="#a"/><use xlink:href="#24"/><use xlink:href="#25" y="2.171"/><use xlink:href="#26" y="4.342"/><use xlink:href="#27" y="6.513"/><use xlink:href="#28" y="8.684"/><use xlink:href="#29" y="10.855"/><use xlink:href="#30" y="13.026"/><use xlink:href="#31" y="15.197"/><use xlink:href="#32" y="19.539"/><use xlink:href="#33" y="21.71"/><use xlink:href="#34" y="23.881"/><use xlink:href="#35" y="26.052"/><use xlink:href="#36" y="28.223"/><use xlink:href="#37" y="30.394"/><use xlink:href="#38" y="32.565"/><use xlink:href="#39" y="36.907"/><use xlink:href="#40" y="39.078"/><use xlink:href="#41" y="43.42"/><use xlink:href="#42" y="45.591"/><use xlink:href="#43" y="47.762"/><use xlink:href="#44" y="52.104"/><use xlink:href="#45" y="54.275"/><use xlink:href="#46" y="56.446"/><use xlink:href="#47" y="60.788"/><use xlink:href="#48" y="62.959"/><use xlink:href="#49" y="65.13"/><use xlink:href="#50" y="67.301"/></svg><svg x="3240"><use xlink:href="#a"/><use xlink:href="#25"/><use xlink:href="#26" y="2.171"/><use xlink:href="#27" y="4.342"/><use xlink:href="#28" y="6.513"/><use xlink:href="#29" y="8.684"/><use xlink:href="#30" y="10.855"/><use xlink:href="#31" y="13.026"/><use xlink:href="#32" y="17.368"/><use xlink:href="#33" y="19.539"/><use xlink:href="#34" y="21.71"/><use xlink:href="#35" y="23.881"/><use xlink:href="#36" y="26.052"/><use xlink:href="#37" y="28.223"/><use xlink:href="#38" y="30.394"/><use xlink:href="#39" y="34.736"/><use xlink:href="#40" y="36.907"/><use xlink:href="#41" y="41.249"/><use xlink:href="#42" y="43.42"/><use xlink:href="#43" y="45.591"/><use xlink:href="#44" y="49.933"/><use xlink:href="#45" y="52.104"/><use xlink:href="#46" y="54.275"/><use xlink:href="#47" y="58.617"/><use xlink:href="#48" y="60.788"/><use xlink:href="#49" y="62.959"/><use xlink:href="#50" y="65.13"/></svg><svg x="3330"><use xlink:href="#a"/><use xlink:href="#26"/><use xlink:href="#27" y="2.171"/><use xlink:href="#28" y="4.342"/><use xlink:href="#29" y="6.513"/><use xlink:href="#30" y="8.684"/><use xlink:href="#31" y="10.855"/><use xlink:href="#32" y="15.197"/><use xlink:href="#33" y="17.368"/><use xlink:href="#34" y="19.539"/><use xlink:href="#35" y="21.71"/><use xlink:href="#36" y="23.881"/><use xlink:href="#37" y="26.052"/><use xlink:href="#38" y="28.223"/><use xlink:href="#39" y="32.565"/><use xlink:href="#40" y="34.736"/><use xlink:href="#41" y="39.078"/><use xlink:href="#42" y="41.249"/><use xlink:href="#43" y="43.42"/><use xlink:href="#44" y="47.762"/><use xlink:href="#45" y="49.933"/><use xlink:href="#46" y="52.104"/><use xlink:href="#47" y="56.446"/><use xlink:href="#48" y="58.617"/><use xlink:href="#49" y="60.788"/><use xlink:href="#50" y="62.959"/><use xlink:href="#51" y="67.301"/></svg><svg x="3420"><use xlink:href="#a"/><use xlink:href="#27"/><use xlink:href="#28" y="2.171"/><use xlink:href="#29" y="4.342"/><use xlink:href="#30" y="6.513"/><use xlink:href="#31" y="8.684"/><use xlink:href="#32" y="13.026"/><use xlink:href="#33" y="15.197"/><use xlink:href="#34" y="17.368"/><use xlink:href="#35" y="19.539"/><use xlink:href="#36" y="21.71"/><use xlink:href="#37" y="23.881"/><use xlink:href="#38" y="26.052"/><use xlink:href="#39" y="30.394"/><use xlink:href="#40" y="32.565"/><use xlink:href="#41" y="36.907"/><use xlink:href="#42" y="39.078"/><use xlink:href="#43" y="41.249"/><use xlink:href="#44" y="45.591"/><use xlink:href="#45" y="47.762"/><use xlink:href="#46" y="49.933"/><use xlink:href="#47" y="54.275"/><use xlink:href="#48" y="56.446"/><use xlink:href="#49" y="58.617"/><use xlink:href="#50" y="60.788"/><use xlink:href="#51" y="65.13"/></svg></svg></g></g></svg></svg>