<svg xmlns="http://www.w3.org/2000/svg" xmlns:xlink="http://www.w3.org/1999/xlink" width="860" height="667.88"><rect width="860" height="667.88" rx="5" ry="5" class="a"/><svg y="0%" x="0%"><circle cx="20" cy="20" r="6" fill="#ff5f58"/><circle cx="40" cy="20" r="6" fill="#ffbd2e"/><circle cx="60" cy="20" r="6" fill="#18c132"/></svg><svg height="607.88" viewBox="0 0 82 60.788" width="820" x="15" xmlns="http://www.w3.org/2000/svg" xmlns:xlink="http://www.w3.org/1999/xlink" y="50"><style>@keyframes i{0%{transform:translateX(0)}2.97%{transform:translateX(-82px)}8.55%{transform:translateX(-164px)}11.36%{transform:translateX(-328px)}19.73%{transform:translateX(-410px)}22.54%{transform:translateX(-574px)}30.91%{transform:translateX(-656px)}33.74%{transform:translateX(-820px)}42.1%{transform:translateX(-902px)}45.13%{transform:translateX(-984px)}45.16%{transform:translateX(-1066px)}56.31%{transform:translateX(-1148px)}59.13%{transform:translateX(-1230px)}59.14%{transform:translateX(-1312px)}67.51%{transform:translateX(-1394px)}69.25%{transform:translateX(-1476px)}74.84%{transform:translateX(-1558px)}77.67%{transform:translateX(-1722px)}88.82%{transform:translateX(-1804px)}91.63%{transform:translateX(-1968px)}91.64%{transform:translateX(-2050px)}to{transform:translateX(-2132px)}}.a{fill:#282d35}.f{fill:#b9c0cb;white-space:pre}</style><g font-family="Monaco,Consolas,Menlo,'Bitstream Vera Sans Mono','Powerline Symbols',monospace" font-size="1.67"><defs><symbol id="1"><text y="1.67" class="f">╔═══════════════════════════════════════════╗</text></symbol><symbol id="2"><text y="1.67" class="f">║</text><text x="4.008" y="1.67" class="f">Signet</text><text x="11.022" y="1.67" class="f">—</text><text x="13.026" y="1.67" class="f">Cryptographic</text><text x="27.054" y="1.67" class="f">Action</text><text x="34.068" y="1.67" class="f">Receipts</text><text x="44.088" y="1.67" class="f">║</text></symbol><symbol id="3"><text y="1.67" class="f">╚═══════════════════════════════════════════╝</text></symbol><symbol id="4"><text y="1.67" class="f">$</text><text x="2.004" y="1.67" class="f">signet</text><text x="9.018" y="1.67" class="f">identity</text><text x="18.036" y="1.67" class="f">generate</text><text x="27.054" y="1.67" class="f">--name</text><text x="34.068" y="1.67" class="f">deploy-bot</text><text x="45.09" y="1.67" class="f">--owner</text><text x="53.106" y="1.67" class="f">willamhou</text><text x="63.126" y="1.67" class="f">--unencrypted</text></symbol><symbol id="5"><text y="1.67" class="f">Identity</text><text x="9.018" y="1.67" class="f">&apos;deploy-bot&apos;</text><text x="22.044" y="1.67" class="f">created</text><text x="30.06" y="1.67" class="f">at</text><text x="33.066" y="1.67" class="f">/tmp/tmp.TrweqW7FtC/keys/</text></symbol><symbol id="6"><text y="1.67" class="f">hruk90/krYc6IXXjEDRV42McERywR1LDWv7GOGWxyD8=</text></symbol><symbol id="7"><text y="1.67" class="f">$</text><text x="2.004" y="1.67" class="f">signet</text><text x="9.018" y="1.67" class="f">identity</text><text x="18.036" y="1.67" class="f">list</text></symbol><symbol id="8"><text y="1.67" class="f">NAME</text><text x="21.042" y="1.67" class="f">OWNER</text><text x="42.084" y="1.67" class="f">CREATED</text></symbol><symbol id="9"><text y="1.67" class="f">------------------------------------------------------------</text></symbol><symbol id="10"><text y="1.67" class="f">deploy-bot</text><text x="21.042" y="1.67" class="f">willamhou</text><text x="42.084" y="1.67" class="f">2026-04-03T03:33:37.746979173+00:00</text></symbol><symbol id="11"><text y="1.67" class="f">$</text><text x="2.004" y="1.67" class="f">signet</text><text x="9.018" y="1.67" class="f">sign</text><text x="14.028" y="1.67" class="f">--key</text><text x="20.04" y="1.67" class="f">deploy-bot</text><text x="31.062" y="1.67" class="f">--tool</text><text x="38.076" y="1.67" class="f">github_create_issue</text><text x="58.116" y="1.67" class="f">\</text></symbol><symbol id="12"><text x="4.008" y="1.67" class="f">--params</text><text x="13.026" y="1.67" class="f">&apos;{&quot;title&quot;:&quot;fix</text><text x="28.056" y="1.67" class="f">auth</text><text x="33.066" y="1.67" class="f">bug&quot;,&quot;priority&quot;:&quot;high&quot;}&apos;</text><text x="58.116" y="1.67" class="f">\</text></symbol><symbol id="13"><text x="4.008" y="1.67" class="f">--target</text><text x="13.026" y="1.67" class="f">mcp://github.local</text><text x="32.064" y="1.67" class="f">--output</text><text x="41.082" y="1.67" class="f">receipt.json</text></symbol><symbol id="14"><text y="1.67" class="f">Receipt</text><text x="8.016" y="1.67" class="f">written</text><text x="16.032" y="1.67" class="f">to</text><text x="19.038" y="1.67" class="f">/tmp/signet-demo-receipt.json</text></symbol><symbol id="15"><text y="1.67" class="f">$</text><text x="2.004" y="1.67" class="f">cat</text><text x="6.012" y="1.67" class="f">receipt.json</text><text x="19.038" y="1.67" class="f">|</text><text x="21.042" y="1.67" class="f">python3</text><text x="29.058" y="1.67" class="f">-m</text><text x="32.064" y="1.67" class="f">json.tool</text><text x="42.084" y="1.67" class="f">|</text><text x="44.088" y="1.67" class="f">head</text><text x="49.098" y="1.67" class="f">-15</text></symbol><symbol id="16"><text y="1.67" class="f">{</text></symbol><symbol id="17"><text x="4.008" y="1.67" class="f">&quot;v&quot;:</text><text x="9.018" y="1.67" class="f">1,</text></symbol><symbol id="18"><text x="4.008" y="1.67" class="f">&quot;id&quot;:</text><text x="10.02" y="1.67" class="f">&quot;rec_0edf1678f257f404d849e26ba2bf5215&quot;,</text></symbol><symbol id="19"><text x="4.008" y="1.67" class="f">&quot;action&quot;:</text><text x="14.028" y="1.67" class="f">{</text></symbol><symbol id="20"><text x="8.016" y="1.67" class="f">&quot;tool&quot;:</text><text x="16.032" y="1.67" class="f">&quot;github_create_issue&quot;,</text></symbol><symbol id="21"><text x="8.016" y="1.67" class="f">&quot;params&quot;:</text><text x="18.036" y="1.67" class="f">{</text></symbol><symbol id="22"><text x="12.024" y="1.67" class="f">&quot;priority&quot;:</text><text x="24.048" y="1.67" class="f">&quot;high&quot;,</text></symbol><symbol id="23"><text x="12.024" y="1.67" class="f">&quot;title&quot;:</text><text x="21.042" y="1.67" class="f">&quot;fix</text><text x="26.052" y="1.67" class="f">auth</text><text x="31.062" y="1.67" class="f">bug&quot;</text></symbol><symbol id="24"><text x="8.016" y="1.67" class="f">},</text></symbol><symbol id="25"><text x="8.016" y="1.67" class="f">&quot;params_hash&quot;:</text><text x="23.046" y="1.67" class="f">&quot;sha256:1ecd25b7985b05c80ea0a55878183ec5f46d217eab9dd7c7971</text></symbol><symbol id="26"><text y="1.67" class="f">74dc85b6180ee&quot;,</text></symbol><symbol id="27"><text x="8.016" y="1.67" class="f">&quot;target&quot;:</text><text x="18.036" y="1.67" class="f">&quot;mcp://github.local&quot;,</text></symbol><symbol id="28"><text x="8.016" y="1.67" class="f">&quot;transport&quot;:</text><text x="21.042" y="1.67" class="f">&quot;stdio&quot;</text></symbol><symbol id="29"><text x="4.008" y="1.67" class="f">},</text></symbol><symbol id="30"><text x="4.008" y="1.67" class="f">&quot;signer&quot;:</text><text x="14.028" y="1.67" class="f">{</text></symbol><symbol id="31"><text x="8.016" y="1.67" class="f">&quot;pubkey&quot;:</text><text x="18.036" y="1.67" class="f">&quot;ed25519:hruk90/krYc6IXXjEDRV42McERywR1LDWv7GOGWxyD8=&quot;,</text></symbol><symbol id="32"><text x="2.004" y="1.67" class="f">...</text></symbol><symbol id="33"><text y="1.67" class="f">$</text><text x="2.004" y="1.67" class="f">signet</text><text x="9.018" y="1.67" class="f">verify</text><text x="16.032" y="1.67" class="f">receipt.json</text><text x="29.058" y="1.67" class="f">--pubkey</text><text x="38.076" y="1.67" class="f">deploy-bot</text></symbol><symbol id="34"><text y="1.67" class="f">Valid:</text><text x="7.014" y="1.67" class="f">&quot;deploy-bot&quot;</text><text x="20.04" y="1.67" class="f">signed</text><text x="27.054" y="1.67" class="f">&quot;github_create_issue&quot;</text><text x="49.098" y="1.67" class="f">at</text><text x="52.104" y="1.67" class="f">2026-04-03T03:33:41.764Z</text></symbol><symbol id="35"><text y="1.67" class="f">#</text><text x="2.004" y="1.67" class="f">Signing</text><text x="10.02" y="1.67" class="f">3</text><text x="12.024" y="1.67" class="f">more</text><text x="17.034" y="1.67" class="f">actions...</text></symbol><symbol id="36"><text y="1.67" class="f">Done.</text></symbol><symbol id="37"><text y="1.67" class="f">$</text><text x="2.004" y="1.67" class="f">signet</text><text x="9.018" y="1.67" class="f">audit</text><text x="15.03" y="1.67" class="f">--since</text><text x="23.046" y="1.67" class="f">1h</text></symbol><symbol id="38"><text y="1.67" class="f">TIME</text><text x="31.062" y="1.67" class="f">SIGNER</text><text x="47.094" y="1.67" class="f">TOOL</text><text x="78.156" y="1.67" class="f">TARG</text></symbol><symbol id="39"><text y="1.67" class="f">ET</text></symbol><symbol id="40"><text y="1.67" class="f">----------------------------------------------------------------------------------</text></symbol><symbol id="41"><text y="1.67" class="f">--------</text></symbol><symbol id="42"><text y="1.67" class="f">2026-04-03T03:33:41.764Z</text><text x="31.062" y="1.67" class="f">deploy-bot</text><text x="47.094" y="1.67" class="f">github_create_issue</text><text x="78.156" y="1.67" class="f">mcp:</text></symbol><symbol id="43"><text y="1.67" class="f">//github.local</text></symbol><symbol id="44"><text y="1.67" class="f">2026-04-03T03:33:48.137Z</text><text x="31.062" y="1.67" class="f">deploy-bot</text><text x="47.094" y="1.67" class="f">slack_send_message</text><text x="78.156" y="1.67" class="f">mcp:</text></symbol><symbol id="45"><text y="1.67" class="f">//test</text></symbol><symbol id="46"><text y="1.67" class="f">2026-04-03T03:33:48.140Z</text><text x="31.062" y="1.67" class="f">deploy-bot</text><text x="47.094" y="1.67" class="f">db_query</text><text x="78.156" y="1.67" class="f">mcp:</text></symbol><symbol id="47"><text y="1.67" class="f">2026-04-03T03:33:48.143Z</text><text x="31.062" y="1.67" class="f">deploy-bot</text><text x="47.094" y="1.67" class="f">api_call</text><text x="78.156" y="1.67" class="f">mcp:</text></symbol><symbol id="48"><text y="1.67" class="f">4</text><text x="2.004" y="1.67" class="f">records</text></symbol><symbol id="49"><text y="1.67" class="f">$</text><text x="2.004" y="1.67" class="f">signet</text><text x="9.018" y="1.67" class="f">verify</text><text x="16.032" y="1.67" class="f">--chain</text></symbol><symbol id="50"><text y="1.67" class="f">Verifying</text><text x="10.02" y="1.67" class="f">chain</text><text x="16.032" y="1.67" class="f">integrity...</text></symbol><symbol id="51"><text y="1.67" class="f">Chain</text><text x="6.012" y="1.67" class="f">intact:</text><text x="14.028" y="1.67" class="f">4</text><text x="16.032" y="1.67" class="f">records</text><text x="24.048" y="1.67" class="f">verified</text></symbol><symbol id="a"><path fill="transparent" d="M0 0h82v29H0z"/></symbol><symbol id="b"><path fill="#6f7683" d="M0 0h1.102v2.171H0z"/></symbol></defs><path class="a" d="M0 0h82v60.788H0z"/><g style="animation-duration:17.959929s;animation-iteration-count:infinite;animation-name:i;animation-timing-function:steps(1,end)"><svg width="2214"><svg><use xlink:href="#a"/><use xlink:href="#b" x="-.004"/></svg><svg x="82"><use xlink:href="#a"/><use xlink:href="#b" x="-.004" y="8.659"/><use xlink:href="#1"/><use xlink:href="#2" y="2.171"/><use xlink:href="#3" y="4.342"/></svg><svg x="164"><use xlink:href="#a"/><use xlink:href="#b" x="-.004" y="10.83"/><use xlink:href="#1"/><use xlink:href="#2" y="2.171"/><use xlink:href="#3" y="4.342"/><use xlink:href="#4" y="8.684"/></svg><svg x="246"><use xlink:href="#a"/><use xlink:href="#b" x="-.004" y="15.172"/><use xlink:href="#1"/><use xlink:href="#2" y="2.171"/><use xlink:href="#3" y="4.342"/><use xlink:href="#4" y="8.684"/><use xlink:href="#5" y="10.855"/><use xlink:href="#6" y="13.026"/></svg><svg x="328"><use xlink:href="#a"/><use xlink:href="#b" x="-.004" y="17.343"/><use xlink:href="#1"/><use xlink:href="#2" y="2.171"/><use xlink:href="#3" y="4.342"/><use xlink:href="#4" y="8.684"/><use xlink:href="#5" y="10.855"/><use xlink:href="#6" y="13.026"/></svg><svg x="410"><use xlink:href="#a"/><use xlink:href="#b" x="-.004" y="19.514"/><use xlink:href="#1"/><use xlink:href="#2" y="2.171"/><use xlink:href="#3" y="4.342"/><use xlink:href="#4" y="8.684"/><use xlink:href="#5" y="10.855"/><use xlink:href="#6" y="13.026"/><use xlink:href="#7" y="17.368"/></svg><svg x="492"><use xlink:href="#a"/><use xlink:href="#b" x="-.004" y="26.027"/><use xlink:href="#1"/><use xlink:href="#2" y="2.171"/><use xlink:href="#3" y="4.342"/><use xlink:href="#4" y="8.684"/><use xlink:href="#5" y="10.855"/><use xlink:href="#6" y="13.026"/><use xlink:href="#7" y="17.368"/><use xlink:href="#8" y="19.539"/><use xlink:href="#9" y="21.71"/><use xlink:href="#10" y="23.881"/></svg><svg x="574"><use xlink:href="#a"/><use xlink:href="#b" x="-.004" y="28.198"/><use xlink:href="#1"/><use xlink:href="#2" y="2.171"/><use xlink:href="#3" y="4.342"/><use xlink:href="#4" y="8.684"/><use xlink:href="#5" y="10.855"/><use xlink:href="#6" y="13.026"/><use xlink:href="#7" y="17.368"/><use xlink:href="#8" y="19.539"/><use xlink:href="#9" y="21.71"/><use xlink:href="#10" y="23.881"/></svg><svg x="656"><use xlink:href="#a"/><use xlink:href="#b" x="-.004" y="34.711"/><use xlink:href="#1"/><use xlink:href="#2" y="2.171"/><use xlink:href="#3" y="4.342"/><use xlink:href="#4" y="8.684"/><use xlink:href="#5" y="10.855"/><use xlink:href="#6" y="13.026"/><use xlink:href="#7" y="17.368"/><use xlink:href="#8" y="19.539"/><use xlink:href="#9" y="21.71"/><use xlink:href="#10" y="23.881"/><use xlink:href="#11" y="28.223"/><use xlink:href="#12" y="30.394"/><use xlink:href="#13" y="32.565"/></svg><svg x="738"><use xlink:href="#a"/><use xlink:href="#b" x="-.004" y="36.882"/><use xlink:href="#1"/><use xlink:href="#2" y="2.171"/><use xlink:href="#3" y="4.342"/><use xlink:href="#4" y="8.684"/><use xlink:href="#5" y="10.855"/><use xlink:href="#6" y="13.026"/><use xlink:href="#7" y="17.368"/><use xlink:href="#8" y="19.539"/><use xlink:href="#9" y="21.71"/><use xlink:href="#10" y="23.881"/><use xlink:href="#11" y="28.223"/><use xlink:href="#12" y="30.394"/><use xlink:href="#13" y="32.565"/><use xlink:href="#14" y="34.736"/></svg><svg x="820"><use xlink:href="#a"/><use xlink:href="#b" x="-.004" y="39.053"/><use xlink:href="#1"/><use xlink:href="#2" y="2.171"/><use xlink:href="#3" y="4.342"/><use xlink:href="#4" y="8.684"/><use xlink:href="#5" y="10.855"/><use xlink:href="#6" y="13.026"/><use xlink:href="#7" y="17.368"/><use xlink:href="#8" y="19.539"/><use xlink:href="#9" y="21.71"/><use xlink:href="#10" y="23.881"/><use xlink:href="#11" y="28.223"/><use xlink:href="#12" y="30.394"/><use xlink:href="#13" y="32.565"/><use xlink:href="#14" y="34.736"/></svg><svg x="902"><use xlink:href="#a"/><use xlink:href="#b" x="-.004" y="41.224"/><use xlink:href="#1"/><use xlink:href="#2" y="2.171"/><use xlink:href="#3" y="4.342"/><use xlink:href="#4" y="8.684"/><use xlink:href="#5" y="10.855"/><use xlink:href="#6" y="13.026"/><use xlink:href="#7" y="17.368"/><use xlink:href="#8" y="19.539"/><use xlink:href="#9" y="21.71"/><use xlink:href="#10" y="23.881"/><use xlink:href="#11" y="28.223"/><use xlink:href="#12" y="30.394"/><use xlink:href="#13" y="32.565"/><use xlink:href="#14" y="34.736"/><use xlink:href="#15" y="39.078"/></svg><svg x="984"><use xlink:href="#a"/><use xlink:href="#b" x="-.004" y="60.763"/><use xlink:href="#7" y="2.171"/><use xlink:href="#8" y="4.342"/><use xlink:href="#9" y="6.513"/><use xlink:href="#10" y="8.684"/><use xlink:href="#11" y="13.026"/><use xlink:href="#12" y="15.197"/><use xlink:href="#13" y="17.368"/><use xlink:href="#14" y="19.539"/><use xlink:href="#15" y="23.881"/><use xlink:href="#16" y="26.052"/><use xlink:href="#17" y="28.223"/><use xlink:href="#18" y="30.394"/><use xlink:href="#19" y="32.565"/><use xlink:href="#20" y="34.736"/><use xlink:href="#21" y="36.907"/><use xlink:href="#22" y="39.078"/><use xlink:href="#23" y="41.249"/><use xlink:href="#24" y="43.42"/><use xlink:href="#25" y="45.591"/><use xlink:href="#26" y="47.762"/><use xlink:href="#27" y="49.933"/><use xlink:href="#28" y="52.104"/><use xlink:href="#29" y="54.275"/><use xlink:href="#30" y="56.446"/><use xlink:href="#31" y="58.617"/></svg><svg x="1066"><use xlink:href="#a"/><use xlink:href="#b" x="-.004" y="60.763"/><use xlink:href="#8"/><use xlink:href="#9" y="2.171"/><use xlink:href="#10" y="4.342"/><use xlink:href="#11" y="8.684"/><use xlink:href="#12" y="10.855"/><use xlink:href="#13" y="13.026"/><use xlink:href="#14" y="15.197"/><use xlink:href="#15" y="19.539"/><use xlink:href="#16" y="21.71"/><use xlink:href="#17" y="23.881"/><use xlink:href="#18" y="26.052"/><use xlink:href="#19" y="28.223"/><use xlink:href="#20" y="30.394"/><use xlink:href="#21" y="32.565"/><use xlink:href="#22" y="34.736"/><use xlink:href="#23" y="36.907"/><use xlink:href="#24" y="39.078"/><use xlink:href="#25" y="41.249"/><use xlink:href="#26" y="43.42"/><use xlink:href="#27" y="45.591"/><use xlink:href="#28" y="47.762"/><use xlink:href="#29" y="49.933"/><use xlink:href="#30" y="52.104"/><use xlink:href="#31" y="54.275"/><use xlink:href="#32" y="56.446"/></svg><svg x="1148"><use xlink:href="#a"/><use xlink:href="#b" x="-.004" y="60.763"/><use xlink:href="#9"/><use xlink:href="#10" y="2.171"/><use xlink:href="#11" y="6.513"/><use xlink:href="#12" y="8.684"/><use xlink:href="#13" y="10.855"/><use xlink:href="#14" y="13.026"/><use xlink:href="#15" y="17.368"/><use xlink:href="#16" y="19.539"/><use xlink:href="#17" y="21.71"/><use xlink:href="#18" y="23.881"/><use xlink:href="#19" y="26.052"/><use xlink:href="#20" y="28.223"/><use xlink:href="#21" y="30.394"/><use xlink:href="#22" y="32.565"/><use xlink:href="#23" y="34.736"/><use xlink:href="#24" y="36.907"/><use xlink:href="#25" y="39.078"/><use xlink:href="#26" y="41.249"/><use xlink:href="#27" y="43.42"/><use xlink:href="#28" y="45.591"/><use xlink:href="#29" y="47.762"/><use xlink:href="#30" y="49.933"/><use xlink:href="#31" y="52.104"/><use xlink:href="#32" y="54.275"/><use xlink:href="#33" y="58.617"/></svg><svg x="1230"><use xlink:href="#a"/><use xlink:href="#b" x="-.004" y="60.763"/><use xlink:href="#10"/><use xlink:href="#11" y="4.342"/><use xlink:href="#12" y="6.513"/><use xlink:href="#13" y="8.684"/><use xlink:href="#14" y="10.855"/><use xlink:href="#15" y="15.197"/><use xlink:href="#16" y="17.368"/><use xlink:href="#17" y="19.539"/><use xlink:href="#18" y="21.71"/><use xlink:href="#19" y="23.881"/><use xlink:href="#20" y="26.052"/><use xlink:href="#21" y="28.223"/><use xlink:href="#22" y="30.394"/><use xlink:href="#23" y="32.565"/><use xlink:href="#24" y="34.736"/><use xlink:href="#25" y="36.907"/><use xlink:href="#26" y="39.078"/><use xlink:href="#27" y="41.249"/><use xlink:href="#28" y="43.42"/><use xlink:href="#29" y="45.591"/><use xlink:href="#30" y="47.762"/><use xlink:href="#31" y="49.933"/><use xlink:href="#32" y="52.104"/><use xlink:href="#33" y="56.446"/><use xlink:href="#34" y="58.617"/></svg><svg x="1312"><use xlink:href="#a"/><use xlink:href="#b" x="-.004" y="60.763"/><use xlink:href="#11" y="2.171"/><use xlink:href="#12" y="4.342"/><use xlink:href="#13" y="6.513"/><use xlink:href="#14" y="8.684"/><use xlink:href="#15" y="13.026"/><use xlink:href="#16" y="15.197"/><use xlink:href="#17" y="17.368"/><use xlink:href="#18" y="19.539"/><use xlink:href="#19" y="21.71"/><use xlink:href="#20" y="23.881"/><use xlink:href="#21" y="26.052"/><use xlink:href="#22" y="28.223"/><use xlink:href="#23" y="30.394"/><use xlink:href="#24" y="32.565"/><use xlink:href="#25" y="34.736"/><use xlink:href="#26" y="36.907"/><use xlink:href="#27" y="39.078"/><use xlink:href="#28" y="41.249"/><use xlink:href="#29" y="43.42"/><use xlink:href="#30" y="45.591"/><use xlink:href="#31" y="47.762"/><use xlink:href="#32" y="49.933"/><use xlink:href="#33" y="54.275"/><use xlink:href="#34" y="56.446"/></svg><svg x="1394"><use xlink:href="#a"/><use xlink:href="#b" x="-.004" y="60.763"/><use xlink:href="#11"/><use xlink:href="#12" y="2.171"/><use xlink:href="#13" y="4.342"/><use xlink:href="#14" y="6.513"/><use xlink:href="#15" y="10.855"/><use xlink:href="#16" y="13.026"/><use xlink:href="#17" y="15.197"/><use xlink:href="#18" y="17.368"/><use xlink:href="#19" y="19.539"/><use xlink:href="#20" y="21.71"/><use xlink:href="#21" y="23.881"/><use xlink:href="#22" y="26.052"/><use xlink:href="#23" y="28.223"/><use xlink:href="#24" y="30.394"/><use xlink:href="#25" y="32.565"/><use xlink:href="#26" y="34.736"/><use xlink:href="#27" y="36.907"/><use xlink:href="#28" y="39.078"/><use xlink:href="#29" y="41.249"/><use xlink:href="#30" y="43.42"/><use xlink:href="#31" y="45.591"/><use xlink:href="#32" y="47.762"/><use xlink:href="#33" y="52.104"/><use xlink:href="#34" y="54.275"/><use xlink:href="#35" y="58.617"/></svg><svg x="1476"><use xlink:href="#a"/><use xlink:href="#b" x="-.004" y="60.763"/><use xlink:href="#13"/><use xlink:href="#14" y="2.171"/><use xlink:href="#15" y="6.513"/><use xlink:href="#16" y="8.684"/><use xlink:href="#17" y="10.855"/><use xlink:href="#18" y="13.026"/><use xlink:href="#19" y="15.197"/><use xlink:href="#20" y="17.368"/><use xlink:href="#21" y="19.539"/><use xlink:href="#22" y="21.71"/><use xlink:href="#23" y="23.881"/><use xlink:href="#24" y="26.052"/><use xlink:href="#25" y="28.223"/><use xlink:href="#26" y="30.394"/><use xlink:href="#27" y="32.565"/><use xlink:href="#28" y="34.736"/><use xlink:href="#29" y="36.907"/><use xlink:href="#30" y="39.078"/><use xlink:href="#31" y="41.249"/><use xlink:href="#32" y="43.42"/><use xlink:href="#33" y="47.762"/><use xlink:href="#34" y="49.933"/><use xlink:href="#35" y="54.275"/><use xlink:href="#36" y="56.446"/></svg><svg x="1558"><use xlink:href="#a"/><use xlink:href="#b" x="-.004" y="60.763"/><use xlink:href="#14"/><use xlink:href="#15" y="4.342"/><use xlink:href="#16" y="6.513"/><use xlink:href="#17" y="8.684"/><use xlink:href="#18" y="10.855"/><use xlink:href="#19" y="13.026"/><use xlink:href="#20" y="15.197"/><use xlink:href="#21" y="17.368"/><use xlink:href="#22" y="19.539"/><use xlink:href="#23" y="21.71"/><use xlink:href="#24" y="23.881"/><use xlink:href="#25" y="26.052"/><use xlink:href="#26" y="28.223"/><use xlink:href="#27" y="30.394"/><use xlink:href="#28" y="32.565"/><use xlink:href="#29" y="34.736"/><use xlink:href="#30" y="36.907"/><use xlink:href="#31" y="39.078"/><use xlink:href="#32" y="41.249"/><use xlink:href="#33" y="45.591"/><use xlink:href="#34" y="47.762"/><use xlink:href="#35" y="52.104"/><use xlink:href="#36" y="54.275"/><use xlink:href="#37" y="58.617"/></svg><svg x="1640"><use xlink:href="#a"/><use xlink:href="#b" x="-.004" y="60.763"/><use xlink:href="#27"/><use xlink:href="#28" y="2.171"/><use xlink:href="#29" y="4.342"/><use xlink:href="#30" y="6.513"/><use xlink:href="#31" y="8.684"/><use xlink:href="#32" y="10.855"/><use xlink:href="#33" y="15.197"/><use xlink:href="#34" y="17.368"/><use xlink:href="#35" y="21.71"/><use xlink:href="#36" y="23.881"/><use xlink:href="#37" y="28.223"/><use xlink:href="#38" y="30.394"/><use xlink:href="#39" y="32.565"/><use xlink:href="#40" y="34.736"/><use xlink:href="#41" y="36.907"/><use xlink:href="#42" y="39.078"/><use xlink:href="#43" y="41.249"/><use xlink:href="#44" y="43.42"/><use xlink:href="#45" y="45.591"/><use xlink:href="#46" y="47.762"/><use xlink:href="#45" y="49.933"/><use xlink:href="#47" y="52.104"/><use xlink:href="#45" y="54.275"/><use xlink:href="#48" y="58.617"/></svg><svg x="1722"><use xlink:href="#a"/><use xlink:href="#b" x="-.004" y="60.763"/><use xlink:href="#28"/><use xlink:href="#29" y="2.171"/><use xlink:href="#30" y="4.342"/><use xlink:href="#31" y="6.513"/><use xlink:href="#32" y="8.684"/><use xlink:href="#33" y="13.026"/><use xlink:href="#34" y="15.197"/><use xlink:href="#35" y="19.539"/><use xlink:href="#36" y="21.71"/><use xlink:href="#37" y="26.052"/><use xlink:href="#38" y="28.223"/><use xlink:href="#39" y="30.394"/><use xlink:href="#40" y="32.565"/><use xlink:href="#41" y="34.736"/><use xlink:href="#42" y="36.907"/><use xlink:href="#43" y="39.078"/><use xlink:href="#44" y="41.249"/><use xlink:href="#45" y="43.42"/><use xlink:href="#46" y="45.591"/><use xlink:href="#45" y="47.762"/><use xlink:href="#47" y="49.933"/><use xlink:href="#45" y="52.104"/><use xlink:href="#48" y="56.446"/></svg><svg x="1804"><use xlink:href="#a"/><use xlink:href="#b" x="-.004" y="60.763"/><use xlink:href="#29"/><use xlink:href="#30" y="2.171"/><use xlink:href="#31" y="4.342"/><use xlink:href="#32" y="6.513"/><use xlink:href="#33" y="10.855"/><use xlink:href="#34" y="13.026"/><use xlink:href="#35" y="17.368"/><use xlink:href="#36" y="19.539"/><use xlink:href="#37" y="23.881"/><use xlink:href="#38" y="26.052"/><use xlink:href="#39" y="28.223"/><use xlink:href="#40" y="30.394"/><use xlink:href="#41" y="32.565"/><use xlink:href="#42" y="34.736"/><use xlink:href="#43" y="36.907"/><use xlink:href="#44" y="39.078"/><use xlink:href="#45" y="41.249"/><use xlink:href="#46" y="43.42"/><use xlink:href="#45" y="45.591"/><use xlink:href="#47" y="47.762"/><use xlink:href="#45" y="49.933"/><use xlink:href="#48" y="54.275"/><use xlink:href="#49" y="58.617"/></svg><svg x="1886"><use xlink:href="#a"/><use xlink:href="#b" x="-.004" y="60.763"/><use xlink:href="#30"/><use xlink:href="#31" y="2.171"/><use xlink:href="#32" y="4.342"/><use xlink:href="#33" y="8.684"/><use xlink:href="#34" y="10.855"/><use xlink:href="#35" y="15.197"/><use xlink:href="#36" y="17.368"/><use xlink:href="#37" y="21.71"/><use xlink:href="#38" y="23.881"/><use xlink:href="#39" y="26.052"/><use xlink:href="#40" y="28.223"/><use xlink:href="#41" y="30.394"/><use xlink:href="#42" y="32.565"/><use xlink:href="#43" y="34.736"/><use xlink:href="#44" y="36.907"/><use xlink:href="#45" y="39.078"/><use xlink:href="#46" y="41.249"/><use xlink:href="#45" y="43.42"/><use xlink:href="#47" y="45.591"/><use xlink:href="#45" y="47.762"/><use xlink:href="#48" y="52.104"/><use xlink:href="#49" y="56.446"/><use xlink:href="#50" y="58.617"/></svg><svg x="1968"><use xlink:href="#a"/><use xlink:href="#b" x="-.004" y="60.763"/><use xlink:href="#31"/><use xlink:href="#32" y="2.171"/><use xlink:href="#33" y="6.513"/><use xlink:href="#34" y="8.684"/><use xlink:href="#35" y="13.026"/><use xlink:href="#36" y="15.197"/><use xlink:href="#37" y="19.539"/><use xlink:href="#38" y="21.71"/><use xlink:href="#39" y="23.881"/><use xlink:href="#40" y="26.052"/><use xlink:href="#41" y="28.223"/><use xlink:href="#42" y="30.394"/><use xlink:href="#43" y="32.565"/><use xlink:href="#44" y="34.736"/><use xlink:href="#45" y="36.907"/><use xlink:href="#46" y="39.078"/><use xlink:href="#45" y="41.249"/><use xlink:href="#47" y="43.42"/><use xlink:href="#45" y="45.591"/><use xlink:href="#48" y="49.933"/><use xlink:href="#49" y="54.275"/><use xlink:href="#50" y="56.446"/><use xlink:href="#51" y="58.617"/></svg><svg x="2050"><use xlink:href="#a"/><use xlink:href="#b" x="-.004" y="60.763"/><use xlink:href="#32"/><use xlink:href="#33" y="4.342"/><use xlink:href="#34" y="6.513"/><use xlink:href="#35" y="10.855"/><use xlink:href="#36" y="13.026"/><use xlink:href="#37" y="17.368"/><use xlink:href="#38" y="19.539"/><use xlink:href="#39" y="21.71"/><use xlink:href="#40" y="23.881"/><use xlink:href="#41" y="26.052"/><use xlink:href="#42" y="28.223"/><use xlink:href="#43" y="30.394"/><use xlink:href="#44" y="32.565"/><use xlink:href="#45" y="34.736"/><use xlink:href="#46" y="36.907"/><use xlink:href="#45" y="39.078"/><use xlink:href="#47" y="41.249"/><use xlink:href="#45" y="43.42"/><use xlink:href="#48" y="47.762"/><use xlink:href="#49" y="52.104"/><use xlink:href="#50" y="54.275"/><use xlink:href="#51" y="56.446"/></svg><svg x="2132"><use xlink:href="#a"/><use xlink:href="#b" x="-.004" y="60.763"/><use xlink:href="#33"/><use xlink:href="#34" y="2.171"/><use xlink:href="#35" y="6.513"/><use xlink:href="#36" y="8.684"/><use xlink:href="#37" y="13.026"/><use xlink:href="#38" y="15.197"/><use xlink:href="#39" y="17.368"/><use xlink:href="#40" y="19.539"/><use xlink:href="#41" y="21.71"/><use xlink:href="#42" y="23.881"/><use xlink:href="#43" y="26.052"/><use xlink:href="#44" y="28.223"/><use xlink:href="#45" y="30.394"/><use xlink:href="#46" y="32.565"/><use xlink:href="#45" y="34.736"/><use xlink:href="#47" y="36.907"/><use xlink:href="#45" y="39.078"/><use xlink:href="#48" y="43.42"/><use xlink:href="#49" y="47.762"/><use xlink:href="#50" y="49.933"/><use xlink:href="#51" y="52.104"/><text y="58.116" class="f">✓</text><text x="2.004" y="58.116" class="f">Every</text><text x="8.016" y="58.116" class="f">tool</text><text x="13.026" y="58.116" class="f">call</text><text x="18.036" y="58.116" class="f">signed.</text><text x="26.052" y="58.116" class="f">Audit</text><text x="32.064" y="58.116" class="f">log</text><text x="36.072" y="58.116" class="f">hash-chained.</text></svg></svg></g></g></svg></svg>