<svg xmlns="http://www.w3.org/2000/svg" xmlns:xlink="http://www.w3.org/1999/xlink" width="860" height="581.04"><rect width="860" height="581.04" rx="5" ry="5" class="a"/><svg y="0%" x="0%"><circle cx="20" cy="20" r="6" fill="#ff5f58"/><circle cx="40" cy="20" r="6" fill="#ffbd2e"/><circle cx="60" cy="20" r="6" fill="#18c132"/></svg><svg height="521.04" viewBox="0 0 82 52.104" width="820" x="15" xmlns="http://www.w3.org/2000/svg" xmlns:xlink="http://www.w3.org/1999/xlink" y="50"><style>@keyframes i{0%{transform:translateX(0)}4.4%{transform:translateX(-82px)}12.3%{transform:translateX(-164px)}16.2%{transform:translateX(-246px)}31.9%{transform:translateX(-328px)}35.8%{transform:translateX(-410px)}51.5%{transform:translateX(-574px)}74%{transform:translateX(-656px)}76.4%{transform:translateX(-738px)}78.8%{transform:translateX(-820px)}81.1%{transform:translateX(-902px)}83.5%{transform:translateX(-984px)}85.9%{transform:translateX(-1066px)}88.2%{transform:translateX(-1148px)}to{transform:translateX(-1312px)}}.a{fill:#282d35}.f{fill:#b9c0cb;white-space:pre}</style><g font-family="Monaco,Consolas,Menlo,'Bitstream Vera Sans Mono','Powerline Symbols',monospace" font-size="1.67"><defs><symbol id="1"><text y="1.67" class="f">╔═══════════════════════════════════════════════════╗</text></symbol><symbol id="2"><text y="1.67" class="f">║</text><text x="4.008" y="1.67" class="f">Signet</text><text x="11.022" y="1.67" class="f">MCP</text><text x="15.03" y="1.67" class="f">—</text><text x="17.034" y="1.67" class="f">Agent</text><text x="23.046" y="1.67" class="f">Signs,</text><text x="30.06" y="1.67" class="f">Server</text><text x="37.074" y="1.67" class="f">Verifies</text><text x="51.102" y="1.67" class="f">║</text></symbol><symbol id="3"><text y="1.67" class="f">╚═══════════════════════════════════════════════════╝</text></symbol><symbol id="4"><text y="1.67" class="f">#</text><text x="2.004" y="1.67" class="f">agent.ts</text><text x="11.022" y="1.67" class="f">—</text><text x="13.026" y="1.67" class="f">3</text><text x="15.03" y="1.67" class="f">lines</text><text x="21.042" y="1.67" class="f">to</text><text x="24.048" y="1.67" class="f">add</text><text x="28.056" y="1.67" class="f">signing:</text></symbol><symbol id="5"><text x="2.004" y="1.67" class="f">import</text><text x="9.018" y="1.67" class="f">{</text><text x="11.022" y="1.67" class="f">generateKeypair</text><text x="27.054" y="1.67" class="f">}</text><text x="29.058" y="1.67" class="f">from</text><text x="34.068" y="1.67" class="f">&quot;@signet-auth/core&quot;;</text></symbol><symbol id="6"><text x="2.004" y="1.67" class="f">import</text><text x="9.018" y="1.67" class="f">{</text><text x="11.022" y="1.67" class="f">SigningTransport</text><text x="28.056" y="1.67" class="f">}</text><text x="30.06" y="1.67" class="f">from</text><text x="35.07" y="1.67" class="f">&quot;@signet-auth/mcp&quot;;</text></symbol><symbol id="7"><text x="2.004" y="1.67" class="f">const</text><text x="8.016" y="1.67" class="f">{</text><text x="10.02" y="1.67" class="f">secretKey</text><text x="20.04" y="1.67" class="f">}</text><text x="22.044" y="1.67" class="f">=</text><text x="24.048" y="1.67" class="f">generateKeypair();</text></symbol><symbol id="8"><text x="2.004" y="1.67" class="f">const</text><text x="8.016" y="1.67" class="f">transport</text><text x="18.036" y="1.67" class="f">=</text><text x="20.04" y="1.67" class="f">new</text><text x="24.048" y="1.67" class="f">SigningTransport(inner,</text><text x="48.096" y="1.67" class="f">secretKey,</text><text x="59.118" y="1.67" class="f">&quot;my-agent&quot;);</text></symbol><symbol id="9"><text y="1.67" class="f">#</text><text x="2.004" y="1.67" class="f">echo-server.ts</text><text x="17.034" y="1.67" class="f">—</text><text x="19.038" y="1.67" class="f">2</text><text x="21.042" y="1.67" class="f">lines</text><text x="27.054" y="1.67" class="f">to</text><text x="30.06" y="1.67" class="f">verify:</text></symbol><symbol id="10"><text x="2.004" y="1.67" class="f">import</text><text x="9.018" y="1.67" class="f">{</text><text x="11.022" y="1.67" class="f">verifyRequest</text><text x="25.05" y="1.67" class="f">}</text><text x="27.054" y="1.67" class="f">from</text><text x="32.064" y="1.67" class="f">&quot;@signet-auth/mcp-server&quot;;</text></symbol><symbol id="11"><text x="2.004" y="1.67" class="f">const</text><text x="8.016" y="1.67" class="f">verified</text><text x="17.034" y="1.67" class="f">=</text><text x="19.038" y="1.67" class="f">verifyRequest(request,</text><text x="42.084" y="1.67" class="f">{</text><text x="44.088" y="1.67" class="f">requireSignature:</text><text x="62.124" y="1.67" class="f">false</text><text x="68.136" y="1.67" class="f">});</text></symbol><symbol id="12"><text x="2.004" y="1.67" class="f">if</text><text x="5.01" y="1.67" class="f">(verified.ok)</text><text x="19.038" y="1.67" class="f">console.error(`Verified:</text><text x="44.088" y="1.67" class="f">${verified.signerName}`);</text></symbol><symbol id="13"><text y="1.67" class="f">───────────────────────────────────────────</text></symbol><symbol id="14"><text y="1.67" class="f">Running</text><text x="8.016" y="1.67" class="f">agent</text><text x="14.028" y="1.67" class="f">→</text><text x="16.032" y="1.67" class="f">echo-server</text><text x="28.056" y="1.67" class="f">(stdio</text><text x="35.07" y="1.67" class="f">transport)...</text></symbol><symbol id="15"><text x="2.004" y="1.67" class="f">Agent</text><text x="8.016" y="1.67" class="f">public</text><text x="15.03" y="1.67" class="f">key:</text><text x="20.04" y="1.67" class="f">MNxVlt8ufih9GqJACXwpkBn0lVUMtzaDJh1M+79ex7g=</text></symbol><symbol id="16"><text x="2.004" y="1.67" class="f">Available</text><text x="12.024" y="1.67" class="f">tools:</text><text x="19.038" y="1.67" class="f">echo</text></symbol><symbol id="17"><text x="2.004" y="1.67" class="f">[signet]</text><text x="11.022" y="1.67" class="f">Warning:</text><text x="20.04" y="1.67" class="f">untrusted</text><text x="30.06" y="1.67" class="f">signer:</text><text x="38.076" y="1.67" class="f">ed25519:MNxVlt8ufih9GqJACXwpkBn0lVUMtzaDJh1M</text></symbol><symbol id="18"><text y="1.67" class="f">+79ex7g=</text></symbol><symbol id="19"><text x="2.004" y="1.67" class="f">Response:</text><text x="12.024" y="1.67" class="f">[{&quot;type&quot;:&quot;text&quot;,&quot;text&quot;:&quot;{\&quot;message\&quot;:\&quot;Hello</text><text x="57.114" y="1.67" class="f">from</text><text x="62.124" y="1.67" class="f">Signet!\&quot;}&quot;}]</text></symbol><symbol id="20"><text x="2.004" y="1.67" class="f">Done.</text><text x="8.016" y="1.67" class="f">Every</text><text x="14.028" y="1.67" class="f">tool</text><text x="19.038" y="1.67" class="f">call</text><text x="24.048" y="1.67" class="f">was</text><text x="28.056" y="1.67" class="f">cryptographically</text><text x="46.092" y="1.67" class="f">signed.</text></symbol><symbol id="21"><text y="1.67" class="f">✓</text><text x="2.004" y="1.67" class="f">Agent</text><text x="8.016" y="1.67" class="f">signed</text><text x="15.03" y="1.67" class="f">the</text><text x="19.038" y="1.67" class="f">request</text><text x="27.054" y="1.67" class="f">(Ed25519)</text></symbol><symbol id="22"><text y="1.67" class="f">✓</text><text x="2.004" y="1.67" class="f">Server</text><text x="9.018" y="1.67" class="f">verified</text><text x="18.036" y="1.67" class="f">the</text><text x="22.044" y="1.67" class="f">signature</text></symbol><symbol id="23"><text y="1.67" class="f">✓</text><text x="2.004" y="1.67" class="f">Compound</text><text x="11.022" y="1.67" class="f">receipt</text><text x="19.038" y="1.67" class="f">binds</text><text x="25.05" y="1.67" class="f">request</text><text x="33.066" y="1.67" class="f">+</text><text x="35.07" y="1.67" class="f">response</text></symbol><symbol id="a"><path fill="transparent" d="M0 0h82v25H0z"/></symbol><symbol id="b"><path fill="#6f7683" d="M0 0h1.102v2.171H0z"/></symbol></defs><path class="a" d="M0 0h82v52.104H0z"/><g style="animation-duration:12.792416000000001s;animation-iteration-count:infinite;animation-name:i;animation-timing-function:steps(1,end)"><svg width="1394"><svg><use xlink:href="#a"/><use xlink:href="#b" x="-.004"/></svg><svg x="82"><use xlink:href="#a"/><use xlink:href="#b" x="-.004" y="8.659"/><use xlink:href="#1"/><use xlink:href="#2" y="2.171"/><use xlink:href="#3" y="4.342"/></svg><svg x="164"><use xlink:href="#a"/><use xlink:href="#b" x="-.004" y="13.001"/><use xlink:href="#1"/><use xlink:href="#2" y="2.171"/><use xlink:href="#3" y="4.342"/><use xlink:href="#4" y="8.684"/></svg><svg x="246"><use xlink:href="#a"/><use xlink:href="#b" x="-.004" y="26.027"/><use xlink:href="#1"/><use xlink:href="#2" y="2.171"/><use xlink:href="#3" y="4.342"/><use xlink:href="#4" y="8.684"/><use xlink:href="#5" y="13.026"/><use xlink:href="#6" y="15.197"/><use xlink:href="#7" y="19.539"/><use xlink:href="#8" y="21.71"/></svg><svg x="328"><use xlink:href="#a"/><use xlink:href="#b" x="-.004" y="30.369"/><use xlink:href="#1"/><use xlink:href="#2" y="2.171"/><use xlink:href="#3" y="4.342"/><use xlink:href="#4" y="8.684"/><use xlink:href="#5" y="13.026"/><use xlink:href="#6" y="15.197"/><use xlink:href="#7" y="19.539"/><use xlink:href="#8" y="21.71"/><use xlink:href="#9" y="26.052"/></svg><svg x="410"><use xlink:href="#a"/><use xlink:href="#b" x="-.004" y="41.224"/><use xlink:href="#1"/><use xlink:href="#2" y="2.171"/><use xlink:href="#3" y="4.342"/><use xlink:href="#4" y="8.684"/><use xlink:href="#5" y="13.026"/><use xlink:href="#6" y="15.197"/><use xlink:href="#7" y="19.539"/><use xlink:href="#8" y="21.71"/><use xlink:href="#9" y="26.052"/><use xlink:href="#10" y="30.394"/><use xlink:href="#11" y="34.736"/><use xlink:href="#12" y="36.907"/></svg><svg x="492"><use xlink:href="#a"/><use xlink:href="#b" x="-.004" y="43.395"/><use xlink:href="#1"/><use xlink:href="#2" y="2.171"/><use xlink:href="#3" y="4.342"/><use xlink:href="#4" y="8.684"/><use xlink:href="#5" y="13.026"/><use xlink:href="#6" y="15.197"/><use xlink:href="#7" y="19.539"/><use xlink:href="#8" y="21.71"/><use xlink:href="#9" y="26.052"/><use xlink:href="#10" y="30.394"/><use xlink:href="#11" y="34.736"/><use xlink:href="#12" y="36.907"/><use xlink:href="#13" y="41.249"/></svg><svg x="574"><use xlink:href="#a"/><use xlink:href="#b" x="-.004" y="49.908"/><use xlink:href="#1"/><use xlink:href="#2" y="2.171"/><use xlink:href="#3" y="4.342"/><use xlink:href="#4" y="8.684"/><use xlink:href="#5" y="13.026"/><use xlink:href="#6" y="15.197"/><use xlink:href="#7" y="19.539"/><use xlink:href="#8" y="21.71"/><use xlink:href="#9" y="26.052"/><use xlink:href="#10" y="30.394"/><use xlink:href="#11" y="34.736"/><use xlink:href="#12" y="36.907"/><use xlink:href="#13" y="41.249"/><use xlink:href="#14" y="43.42"/><use xlink:href="#13" y="45.591"/></svg><svg x="656"><use xlink:href="#a"/><use xlink:href="#b" x="-.004" y="52.079"/><use xlink:href="#1"/><use xlink:href="#2" y="2.171"/><use xlink:href="#3" y="4.342"/><use xlink:href="#4" y="8.684"/><use xlink:href="#5" y="13.026"/><use xlink:href="#6" y="15.197"/><use xlink:href="#7" y="19.539"/><use xlink:href="#8" y="21.71"/><use xlink:href="#9" y="26.052"/><use xlink:href="#10" y="30.394"/><use xlink:href="#11" y="34.736"/><use xlink:href="#12" y="36.907"/><use xlink:href="#13" y="41.249"/><use xlink:href="#14" y="43.42"/><use xlink:href="#13" y="45.591"/><use xlink:href="#15" y="49.933"/></svg><svg x="738"><use xlink:href="#a"/><use xlink:href="#b" x="-.004" y="52.079"/><use xlink:href="#2"/><use xlink:href="#3" y="2.171"/><use xlink:href="#4" y="6.513"/><use xlink:href="#5" y="10.855"/><use xlink:href="#6" y="13.026"/><use xlink:href="#7" y="17.368"/><use xlink:href="#8" y="19.539"/><use xlink:href="#9" y="23.881"/><use xlink:href="#10" y="28.223"/><use xlink:href="#11" y="32.565"/><use xlink:href="#12" y="34.736"/><use xlink:href="#13" y="39.078"/><use xlink:href="#14" y="41.249"/><use xlink:href="#13" y="43.42"/><use xlink:href="#15" y="47.762"/><use xlink:href="#16" y="49.933"/></svg><svg x="820"><use xlink:href="#a"/><use xlink:href="#b" x="-.004" y="52.079"/><use xlink:href="#4" y="2.171"/><use xlink:href="#5" y="6.513"/><use xlink:href="#6" y="8.684"/><use xlink:href="#7" y="13.026"/><use xlink:href="#8" y="15.197"/><use xlink:href="#9" y="19.539"/><use xlink:href="#10" y="23.881"/><use xlink:href="#11" y="28.223"/><use xlink:href="#12" y="30.394"/><use xlink:href="#13" y="34.736"/><use xlink:href="#14" y="36.907"/><use xlink:href="#13" y="39.078"/><use xlink:href="#15" y="43.42"/><use xlink:href="#16" y="45.591"/><use xlink:href="#17" y="47.762"/><use xlink:href="#18" y="49.933"/></svg><svg x="902"><use xlink:href="#a"/><use xlink:href="#b" x="-.004" y="52.079"/><use xlink:href="#4"/><use xlink:href="#5" y="4.342"/><use xlink:href="#6" y="6.513"/><use xlink:href="#7" y="10.855"/><use xlink:href="#8" y="13.026"/><use xlink:href="#9" y="17.368"/><use xlink:href="#10" y="21.71"/><use xlink:href="#11" y="26.052"/><use xlink:href="#12" y="28.223"/><use xlink:href="#13" y="32.565"/><use xlink:href="#14" y="34.736"/><use xlink:href="#13" y="36.907"/><use xlink:href="#15" y="41.249"/><use xlink:href="#16" y="43.42"/><use xlink:href="#17" y="45.591"/><use xlink:href="#18" y="47.762"/><use xlink:href="#19" y="49.933"/></svg><svg x="984"><use xlink:href="#a"/><use xlink:href="#b" x="-.004" y="52.079"/><use xlink:href="#5" y="2.171"/><use xlink:href="#6" y="4.342"/><use xlink:href="#7" y="8.684"/><use xlink:href="#8" y="10.855"/><use xlink:href="#9" y="15.197"/><use xlink:href="#10" y="19.539"/><use xlink:href="#11" y="23.881"/><use xlink:href="#12" y="26.052"/><use xlink:href="#13" y="30.394"/><use xlink:href="#14" y="32.565"/><use xlink:href="#13" y="34.736"/><use xlink:href="#15" y="39.078"/><use xlink:href="#16" y="41.249"/><use xlink:href="#17" y="43.42"/><use xlink:href="#18" y="45.591"/><use xlink:href="#19" y="47.762"/></svg><svg x="1066"><use xlink:href="#a"/><use xlink:href="#b" x="-.004" y="52.079"/><use xlink:href="#5"/><use xlink:href="#6" y="2.171"/><use xlink:href="#7" y="6.513"/><use xlink:href="#8" y="8.684"/><use xlink:href="#9" y="13.026"/><use xlink:href="#10" y="17.368"/><use xlink:href="#11" y="21.71"/><use xlink:href="#12" y="23.881"/><use xlink:href="#13" y="28.223"/><use xlink:href="#14" y="30.394"/><use xlink:href="#13" y="32.565"/><use xlink:href="#15" y="36.907"/><use xlink:href="#16" y="39.078"/><use xlink:href="#17" y="41.249"/><use xlink:href="#18" y="43.42"/><use xlink:href="#19" y="45.591"/><use xlink:href="#20" y="49.933"/></svg><svg x="1148"><use xlink:href="#a"/><use xlink:href="#b" x="-.004" y="52.079"/><use xlink:href="#6"/><use xlink:href="#7" y="4.342"/><use xlink:href="#8" y="6.513"/><use xlink:href="#9" y="10.855"/><use xlink:href="#10" y="15.197"/><use xlink:href="#11" y="19.539"/><use xlink:href="#12" y="21.71"/><use xlink:href="#13" y="26.052"/><use xlink:href="#14" y="28.223"/><use xlink:href="#13" y="30.394"/><use xlink:href="#15" y="34.736"/><use xlink:href="#16" y="36.907"/><use xlink:href="#17" y="39.078"/><use xlink:href="#18" y="41.249"/><use xlink:href="#19" y="43.42"/><use xlink:href="#20" y="47.762"/></svg><svg x="1230"><use xlink:href="#a"/><use xlink:href="#b" x="-.004" y="52.079"/><use xlink:href="#9" y="2.171"/><use xlink:href="#10" y="6.513"/><use xlink:href="#11" y="10.855"/><use xlink:href="#12" y="13.026"/><use xlink:href="#13" y="17.368"/><use xlink:href="#14" y="19.539"/><use xlink:href="#13" y="21.71"/><use xlink:href="#15" y="26.052"/><use xlink:href="#16" y="28.223"/><use xlink:href="#17" y="30.394"/><use xlink:href="#18" y="32.565"/><use xlink:href="#19" y="34.736"/><use xlink:href="#20" y="39.078"/><use xlink:href="#13" y="43.42"/><use xlink:href="#21" y="45.591"/><use xlink:href="#22" y="47.762"/><use xlink:href="#23" y="49.933"/></svg><svg x="1312"><use xlink:href="#a"/><use xlink:href="#b" x="-.004" y="52.079"/><use xlink:href="#10" y="2.171"/><use xlink:href="#11" y="6.513"/><use xlink:href="#12" y="8.684"/><use xlink:href="#13" y="13.026"/><use xlink:href="#14" y="15.197"/><use xlink:href="#13" y="17.368"/><use xlink:href="#15" y="21.71"/><use xlink:href="#16" y="23.881"/><use xlink:href="#17" y="26.052"/><use xlink:href="#18" y="28.223"/><use xlink:href="#19" y="30.394"/><use xlink:href="#20" y="34.736"/><use xlink:href="#13" y="39.078"/><use xlink:href="#21" y="41.249"/><use xlink:href="#22" y="43.42"/><use xlink:href="#23" y="45.591"/><use xlink:href="#13" y="47.762"/></svg></svg></g></g></svg></svg>