<svg xmlns="http://www.w3.org/2000/svg" xmlns:xlink="http://www.w3.org/1999/xlink" width="1120" height="581.04"><rect width="1120" height="581.04" rx="5" ry="5" class="a"/><svg y="0%" x="0%"><circle cx="20" cy="20" r="6" fill="#ff5f58"/><circle cx="40" cy="20" r="6" fill="#ffbd2e"/><circle cx="60" cy="20" r="6" fill="#18c132"/></svg><svg height="521.04" viewBox="0 0 108 52.104" width="1080" x="15" xmlns="http://www.w3.org/2000/svg" xmlns:xlink="http://www.w3.org/1999/xlink" y="50"><style>@keyframes h{0%{transform:translateX(0)}3.9%{transform:translateX(-108px)}12.6%{transform:translateX(-216px)}18.1%{transform:translateX(-324px)}23.6%{transform:translateX(-432px)}30.7%{transform:translateX(-540px)}40.2%{transform:translateX(-648px)}51.2%{transform:translateX(-756px)}62.2%{transform:translateX(-864px)}71.7%{transform:translateX(-972px)}82.7%{transform:translateX(-1080px)}90.6%{transform:translateX(-1188px)}to{transform:translateX(-1296px)}}.a{fill:#282d35}.f{fill:#b9c0cb;white-space:pre}</style><g font-family="Monaco,Consolas,Menlo,'Bitstream Vera Sans Mono','Powerline Symbols',monospace" font-size="1.67"><defs><symbol id="1"><text y="1.67" class="f">╔══════════════════════════════════════════════════════╗</text></symbol><symbol id="2"><text y="1.67" class="f">║</text><text x="4.008" y="1.67" class="f">Signet</text><text x="11.022" y="1.67" class="f">Execution</text><text x="21.042" y="1.67" class="f">Boundary</text><text x="30.06" y="1.67" class="f">—</text><text x="32.064" y="1.67" class="f">Reject</text><text x="39.078" y="1.67" class="f">Bad</text><text x="43.086" y="1.67" class="f">Requests</text><text x="54.108" y="1.67" class="f">║</text></symbol><symbol id="3"><text y="1.67" class="f">╚══════════════════════════════════════════════════════╝</text></symbol><symbol id="4"><text y="1.67" class="f">$</text><text x="2.004" y="1.67" class="f">cd</text><text x="5.01" y="1.67" class="f">examples/mcp-agent</text></symbol><symbol id="5"><text y="1.67" class="f">$</text><text x="2.004" y="1.67" class="f">npm</text><text x="6.012" y="1.67" class="f">run</text><text x="10.02" y="1.67" class="f">execution-boundary-demo</text></symbol><symbol id="6"><text y="1.67" class="f">&gt;</text><text x="2.004" y="1.67" class="f">execution-boundary-demo</text></symbol><symbol id="7"><text y="1.67" class="f">&gt;</text><text x="2.004" y="1.67" class="f">node</text><text x="7.014" y="1.67" class="f">demo-execution-boundary.mjs</text></symbol><symbol id="8"><text y="1.67" class="f">===</text><text x="4.008" y="1.67" class="f">Signet</text><text x="11.022" y="1.67" class="f">Execution-Boundary</text><text x="30.06" y="1.67" class="f">Demo</text><text x="35.07" y="1.67" class="f">===</text></symbol><symbol id="9"><text y="1.67" class="f">Dangerous</text><text x="10.02" y="1.67" class="f">tool:</text><text x="16.032" y="1.67" class="f">delete_prod_env</text></symbol><symbol id="10"><text y="1.67" class="f">Server</text><text x="7.014" y="1.67" class="f">policy:</text><text x="15.03" y="1.67" class="f">reject</text><text x="22.044" y="1.67" class="f">requests</text><text x="31.062" y="1.67" class="f">before</text><text x="38.076" y="1.67" class="f">execution</text><text x="48.096" y="1.67" class="f">unless</text><text x="55.11" y="1.67" class="f">verification</text><text x="68.136" y="1.67" class="f">succeeds.</text></symbol><symbol id="11"><text y="1.67" class="f">[1/5]</text><text x="6.012" y="1.67" class="f">unsigned</text><text x="15.03" y="1.67" class="f">request</text><text x="29.058" y="1.67" class="f">-&gt;</text><text x="32.064" y="1.67" class="f">REJECTED</text><text x="41.082" y="1.67" class="f">unsigned</text><text x="50.1" y="1.67" class="f">request</text></symbol><symbol id="12"><text x="7.014" y="1.67" class="f">BLOCKED</text><text x="16.032" y="1.67" class="f">before</text><text x="23.046" y="1.67" class="f">execution</text></symbol><symbol id="13"><text y="1.67" class="f">[2/5]</text><text x="6.012" y="1.67" class="f">tampered</text><text x="15.03" y="1.67" class="f">arguments</text><text x="29.058" y="1.67" class="f">-&gt;</text><text x="32.064" y="1.67" class="f">REJECTED</text><text x="41.082" y="1.67" class="f">params</text><text x="48.096" y="1.67" class="f">mismatch:</text><text x="58.116" y="1.67" class="f">signed</text><text x="65.13" y="1.67" class="f">params</text><text x="72.144" y="1.67" class="f">differ</text><text x="79.158" y="1.67" class="f">from</text><text x="84.168" y="1.67" class="f">request</text><text x="92.184" y="1.67" class="f">arguments</text></symbol><symbol id="14"><text y="1.67" class="f">[3/5]</text><text x="6.012" y="1.67" class="f">wrong</text><text x="12.024" y="1.67" class="f">target</text><text x="29.058" y="1.67" class="f">-&gt;</text><text x="32.064" y="1.67" class="f">REJECTED</text><text x="41.082" y="1.67" class="f">target</text><text x="48.096" y="1.67" class="f">mismatch:</text><text x="58.116" y="1.67" class="f">expected</text><text x="67.134" y="1.67" class="f">mcp://infra.staging,</text><text x="88.176" y="1.67" class="f">got</text><text x="92.184" y="1.67" class="f">mcp://infra.prod</text></symbol><symbol id="15"><text y="1.67" class="f">[4/5]</text><text x="6.012" y="1.67" class="f">expired</text><text x="14.028" y="1.67" class="f">receipt</text><text x="29.058" y="1.67" class="f">-&gt;</text><text x="32.064" y="1.67" class="f">REJECTED</text><text x="41.082" y="1.67" class="f">receipt</text><text x="49.098" y="1.67" class="f">too</text><text x="53.106" y="1.67" class="f">old</text></symbol><symbol id="16"><text y="1.67" class="f">[5/5]</text><text x="6.012" y="1.67" class="f">valid</text><text x="12.024" y="1.67" class="f">signed</text><text x="19.038" y="1.67" class="f">request</text><text x="29.058" y="1.67" class="f">-&gt;</text><text x="32.064" y="1.67" class="f">ALLOWED</text><text x="41.082" y="1.67" class="f">signer=demo-agent</text></symbol><symbol id="17"><text x="7.014" y="1.67" class="f">EXECUTE</text><text x="16.032" y="1.67" class="f">delete_prod_env</text><text x="32.064" y="1.67" class="f">(simulated)</text></symbol><symbol id="18"><text y="1.67" class="f">Only</text><text x="5.01" y="1.67" class="f">verified</text><text x="14.028" y="1.67" class="f">requests</text><text x="23.046" y="1.67" class="f">reach</text><text x="29.058" y="1.67" class="f">the</text><text x="33.066" y="1.67" class="f">execution</text><text x="43.086" y="1.67" class="f">boundary.</text></symbol><symbol id="a"><path fill="transparent" d="M0 0h108v24H0z"/></symbol></defs><path class="a" d="M0 0h108v52.104H0z"/><g style="animation-duration:12.7s;animation-iteration-count:infinite;animation-name:h;animation-timing-function:steps(1,end)"><svg width="1404"><svg><use xlink:href="#a"/></svg><svg x="108"><use xlink:href="#a"/><use xlink:href="#1"/><use xlink:href="#2" y="2.171"/><use xlink:href="#3" y="4.342"/></svg><svg x="216"><use xlink:href="#a"/><use xlink:href="#1"/><use xlink:href="#2" y="2.171"/><use xlink:href="#3" y="4.342"/><use xlink:href="#4" y="6.513"/></svg><svg x="324"><use xlink:href="#a"/><use xlink:href="#1"/><use xlink:href="#2" y="2.171"/><use xlink:href="#3" y="4.342"/><use xlink:href="#4" y="6.513"/><use xlink:href="#5" y="8.684"/></svg><svg x="432"><use xlink:href="#a"/><use xlink:href="#1"/><use xlink:href="#2" y="2.171"/><use xlink:href="#3" y="4.342"/><use xlink:href="#4" y="6.513"/><use xlink:href="#5" y="8.684"/><use xlink:href="#6" y="13.026"/><use xlink:href="#7" y="15.197"/></svg><svg x="540"><use xlink:href="#a"/><use xlink:href="#1"/><use xlink:href="#2" y="2.171"/><use xlink:href="#3" y="4.342"/><use xlink:href="#4" y="6.513"/><use xlink:href="#5" y="8.684"/><use xlink:href="#6" y="13.026"/><use xlink:href="#7" y="15.197"/><use xlink:href="#8" y="17.368"/><use xlink:href="#9" y="19.539"/><use xlink:href="#10" y="21.71"/></svg><svg x="648"><use xlink:href="#a"/><use xlink:href="#1"/><use xlink:href="#2" y="2.171"/><use xlink:href="#3" y="4.342"/><use xlink:href="#4" y="6.513"/><use xlink:href="#5" y="8.684"/><use xlink:href="#6" y="13.026"/><use xlink:href="#7" y="15.197"/><use xlink:href="#8" y="17.368"/><use xlink:href="#9" y="19.539"/><use xlink:href="#10" y="21.71"/><use xlink:href="#11" y="23.881"/><use xlink:href="#12" y="26.052"/></svg><svg x="756"><use xlink:href="#a"/><use xlink:href="#1"/><use xlink:href="#2" y="2.171"/><use xlink:href="#3" y="4.342"/><use xlink:href="#4" y="6.513"/><use xlink:href="#5" y="8.684"/><use xlink:href="#6" y="13.026"/><use xlink:href="#7" y="15.197"/><use xlink:href="#8" y="17.368"/><use xlink:href="#9" y="19.539"/><use xlink:href="#10" y="21.71"/><use xlink:href="#11" y="23.881"/><use xlink:href="#12" y="26.052"/><use xlink:href="#13" y="28.223"/><use xlink:href="#12" y="30.394"/></svg><svg x="864"><use xlink:href="#a"/><use xlink:href="#1"/><use xlink:href="#2" y="2.171"/><use xlink:href="#3" y="4.342"/><use xlink:href="#4" y="6.513"/><use xlink:href="#5" y="8.684"/><use xlink:href="#6" y="13.026"/><use xlink:href="#7" y="15.197"/><use xlink:href="#8" y="17.368"/><use xlink:href="#9" y="19.539"/><use xlink:href="#10" y="21.71"/><use xlink:href="#11" y="23.881"/><use xlink:href="#12" y="26.052"/><use xlink:href="#13" y="28.223"/><use xlink:href="#12" y="30.394"/><use xlink:href="#14" y="32.565"/><use xlink:href="#12" y="34.736"/></svg><svg x="972"><use xlink:href="#a"/><use xlink:href="#1"/><use xlink:href="#2" y="2.171"/><use xlink:href="#3" y="4.342"/><use xlink:href="#4" y="6.513"/><use xlink:href="#5" y="8.684"/><use xlink:href="#6" y="13.026"/><use xlink:href="#7" y="15.197"/><use xlink:href="#8" y="17.368"/><use xlink:href="#9" y="19.539"/><use xlink:href="#10" y="21.71"/><use xlink:href="#11" y="23.881"/><use xlink:href="#12" y="26.052"/><use xlink:href="#13" y="28.223"/><use xlink:href="#12" y="30.394"/><use xlink:href="#14" y="32.565"/><use xlink:href="#12" y="34.736"/><use xlink:href="#15" y="36.907"/><use xlink:href="#12" y="39.078"/></svg><svg x="1080"><use xlink:href="#a"/><use xlink:href="#1"/><use xlink:href="#2" y="2.171"/><use xlink:href="#3" y="4.342"/><use xlink:href="#4" y="6.513"/><use xlink:href="#5" y="8.684"/><use xlink:href="#6" y="13.026"/><use xlink:href="#7" y="15.197"/><use xlink:href="#8" y="17.368"/><use xlink:href="#9" y="19.539"/><use xlink:href="#10" y="21.71"/><use xlink:href="#11" y="23.881"/><use xlink:href="#12" y="26.052"/><use xlink:href="#13" y="28.223"/><use xlink:href="#12" y="30.394"/><use xlink:href="#14" y="32.565"/><use xlink:href="#12" y="34.736"/><use xlink:href="#15" y="36.907"/><use xlink:href="#12" y="39.078"/><use xlink:href="#16" y="41.249"/><use xlink:href="#17" y="43.42"/></svg><svg x="1188"><use xlink:href="#a"/><use xlink:href="#1"/><use xlink:href="#2" y="2.171"/><use xlink:href="#3" y="4.342"/><use xlink:href="#4" y="6.513"/><use xlink:href="#5" y="8.684"/><use xlink:href="#6" y="13.026"/><use xlink:href="#7" y="15.197"/><use xlink:href="#8" y="17.368"/><use xlink:href="#9" y="19.539"/><use xlink:href="#10" y="21.71"/><use xlink:href="#11" y="23.881"/><use xlink:href="#12" y="26.052"/><use xlink:href="#13" y="28.223"/><use xlink:href="#12" y="30.394"/><use xlink:href="#14" y="32.565"/><use xlink:href="#12" y="34.736"/><use xlink:href="#15" y="36.907"/><use xlink:href="#12" y="39.078"/><use xlink:href="#16" y="41.249"/><use xlink:href="#17" y="43.42"/><use xlink:href="#18" y="45.591"/></svg><svg x="1296"><use xlink:href="#a"/><use xlink:href="#1"/><use xlink:href="#2" y="2.171"/><use xlink:href="#3" y="4.342"/><use xlink:href="#4" y="6.513"/><use xlink:href="#5" y="8.684"/><use xlink:href="#6" y="13.026"/><use xlink:href="#7" y="15.197"/><use xlink:href="#8" y="17.368"/><use xlink:href="#9" y="19.539"/><use xlink:href="#10" y="21.71"/><use xlink:href="#11" y="23.881"/><use xlink:href="#12" y="26.052"/><use xlink:href="#13" y="28.223"/><use xlink:href="#12" y="30.394"/><use xlink:href="#14" y="32.565"/><use xlink:href="#12" y="34.736"/><use xlink:href="#15" y="36.907"/><use xlink:href="#12" y="39.078"/><use xlink:href="#16" y="41.249"/><use xlink:href="#17" y="43.42"/><use xlink:href="#18" y="45.591"/><text y="49.432" class="f">✓</text><text x="2.004" y="49.432" class="f">Unsigned,</text><text x="12.024" y="49.432" class="f">tampered,</text><text x="22.044" y="49.432" class="f">stale,</text><text x="29.058" y="49.432" class="f">or</text><text x="32.064" y="49.432" class="f">mis-targeted</text><text x="45.09" y="49.432" class="f">calls</text><text x="51.102" y="49.432" class="f">never</text><text x="57.114" y="49.432" class="f">run.</text></svg></svg></g></g></svg></svg>