<svg xmlns="http://www.w3.org/2000/svg" xmlns:xlink="http://www.w3.org/1999/xlink" width="1150" height="654.46"><rect width="1150" height="654.46" rx="5" ry="5" class="a"/><svg y="0%" x="0%"><circle cx="20" cy="20" r="6" fill="#ff5f58"/><circle cx="40" cy="20" r="6" fill="#ffbd2e"/><circle cx="60" cy="20" r="6" fill="#18c132"/></svg><svg height="564.46" viewBox="0 0 108 56.446" width="1080" x="30" xmlns="http://www.w3.org/2000/svg" xmlns:xlink="http://www.w3.org/1999/xlink" y="65"><style>@keyframes p{0%{transform:translateX(0)}3.3%{transform:translateX(-108px)}8.7%{transform:translateX(-216px)}15.3%{transform:translateX(-324px)}18.7%{transform:translateX(-432px)}26.7%{transform:translateX(-540px)}36.7%{transform:translateX(-648px)}46.7%{transform:translateX(-756px)}56.7%{transform:translateX(-864px)}70%{transform:translateX(-972px)}80%{transform:translateX(-1080px)}to{transform:translateX(-1188px)}}.a{fill:#282d35}.f,.g{white-space:pre}.f{fill:#66c2cd;font-weight:700}.g{fill:#b9c0cb}.i{font-weight:700}.i,.j{fill:#e88388;white-space:pre}.k{font-weight:700}.k,.l,.m{fill:#a8cc8c;white-space:pre}.m{fill:#b9c0cb;font-weight:700}</style><g font-family="Monaco,Consolas,Menlo,'Bitstream Vera Sans Mono','Powerline Symbols',monospace" font-size="1.67"><defs><symbol id="1"><text y="1.67" class="f">╔══════════════════════════════════════════════════════╗</text></symbol><symbol id="2"><text y="1.67" class="f">║</text><text x="4.008" y="1.67" class="f">Signet</text><text x="11.022" y="1.67" class="f">Execution</text><text x="21.042" y="1.67" class="f">Boundary</text><text x="30.06" y="1.67" class="f">—</text><text x="32.064" y="1.67" class="f">Reject</text><text x="39.078" y="1.67" class="f">Bad</text><text x="43.086" y="1.67" class="f">Requests</text><text x="54.108" y="1.67" class="f">║</text></symbol><symbol id="3"><text y="1.67" class="f">╚══════════════════════════════════════════════════════╝</text></symbol><symbol id="4"><text y="1.67" class="g">Dangerous</text><text x="10.02" y="1.67" class="g">tool:</text><text x="16.032" y="1.67" style="white-space:pre" fill="#dbab79">delete_prod_env</text></symbol><symbol id="5"><text y="1.67" class="g">Server</text><text x="7.014" y="1.67" class="g">policy:</text><text x="15.03" y="1.67" class="g">reject</text><text x="22.044" y="1.67" class="g">requests</text><text x="31.062" y="1.67" class="g">before</text><text x="38.076" y="1.67" class="g">execution</text><text x="48.096" y="1.67" class="g">unless</text><text x="55.11" y="1.67" class="g">verification</text><text x="68.136" y="1.67" class="g">succeeds.</text></symbol><symbol id="6"><text y="1.67" class="g">$</text><text x="2.004" y="1.67" class="g">node</text><text x="7.014" y="1.67" class="g">demo-execution-boundary.mjs</text></symbol><symbol id="7"><text y="1.67" class="g">[1/5]</text><text x="6.012" y="1.67" class="g">unsigned</text><text x="15.03" y="1.67" class="g">request</text><text x="29.058" y="1.67" class="g">-&gt;</text><text x="32.064" y="1.67" class="i">❌</text><text x="34.068" y="1.67" class="i">REJECTED</text><text x="43.086" y="1.67" class="g">unsigned</text><text x="52.104" y="1.67" class="g">request</text></symbol><symbol id="8"><text x="7.014" y="1.67" class="j">BLOCKED</text><text x="16.032" y="1.67" class="g">before</text><text x="23.046" y="1.67" class="g">execution</text></symbol><symbol id="9"><text y="1.67" class="g">[2/5]</text><text x="6.012" y="1.67" class="g">tampered</text><text x="15.03" y="1.67" class="g">arguments</text><text x="29.058" y="1.67" class="g">-&gt;</text><text x="32.064" y="1.67" class="i">❌</text><text x="34.068" y="1.67" class="i">REJECTED</text><text x="43.086" y="1.67" class="g">params</text><text x="50.1" y="1.67" class="g">mismatch:</text><text x="60.12" y="1.67" class="g">signed</text><text x="67.134" y="1.67" class="g">params</text><text x="74.148" y="1.67" class="g">differ</text><text x="81.162" y="1.67" class="g">from</text><text x="86.172" y="1.67" class="g">request</text><text x="94.188" y="1.67" class="g">arguments</text></symbol><symbol id="10"><text y="1.67" class="g">[3/5]</text><text x="6.012" y="1.67" class="g">wrong</text><text x="12.024" y="1.67" class="g">target</text><text x="29.058" y="1.67" class="g">-&gt;</text><text x="32.064" y="1.67" class="i">❌</text><text x="34.068" y="1.67" class="i">REJECTED</text><text x="43.086" y="1.67" class="g">target</text><text x="50.1" y="1.67" class="g">mismatch:</text><text x="60.12" y="1.67" class="g">expected</text><text x="69.138" y="1.67" class="g">mcp://staging,</text><text x="84.168" y="1.67" class="g">got</text><text x="88.176" y="1.67" class="g">mcp://prod</text></symbol><symbol id="11"><text y="1.67" class="g">[4/5]</text><text x="6.012" y="1.67" class="g">expired</text><text x="14.028" y="1.67" class="g">receipt</text><text x="29.058" y="1.67" class="g">-&gt;</text><text x="32.064" y="1.67" class="i">❌</text><text x="34.068" y="1.67" class="i">REJECTED</text><text x="43.086" y="1.67" class="g">receipt</text><text x="51.102" y="1.67" class="g">too</text><text x="55.11" y="1.67" class="g">old</text></symbol><symbol id="12"><text y="1.67" class="g">[5/5]</text><text x="6.012" y="1.67" class="g">valid</text><text x="12.024" y="1.67" class="g">signed</text><text x="19.038" y="1.67" class="g">request</text><text x="29.058" y="1.67" class="g">-&gt;</text><text x="32.064" y="1.67" class="k">✅</text><text x="34.068" y="1.67" class="k">ALLOWED</text><text x="43.086" y="1.67" class="l">signer=demo-agent</text></symbol><symbol id="13"><text x="7.014" y="1.67" class="k">EXECUTE</text><text x="16.032" y="1.67" class="l">delete_prod_env</text><text x="32.064" y="1.67" class="g">(simulated)</text></symbol><symbol id="14"><text y="1.67" class="m">Only</text><text x="5.01" y="1.67" class="m">verified</text><text x="14.028" y="1.67" class="m">requests</text><text x="23.046" y="1.67" class="m">reach</text><text x="29.058" y="1.67" class="m">the</text><text x="33.066" y="1.67" class="m">execution</text><text x="43.086" y="1.67" class="m">boundary.</text></symbol><symbol id="15"><text y="1.67" class="k">✓</text><text x="2.004" y="1.67" class="g">Unsigned,</text><text x="12.024" y="1.67" class="g">tampered,</text><text x="22.044" y="1.67" class="g">stale,</text><text x="29.058" y="1.67" class="g">or</text><text x="32.064" y="1.67" class="g">mis-targeted</text><text x="45.09" y="1.67" class="g">calls</text><text x="51.102" y="1.67" class="j">never</text><text x="57.114" y="1.67" class="j">run</text><text x="60.12" y="1.67" class="g">.</text></symbol><symbol id="a"><path fill="transparent" d="M0 0h108v27H0z"/></symbol><symbol id="b"><path fill="#6f7683" d="M0 0h1.102v2.171H0z"/></symbol></defs><path class="a" d="M0 0h108v56.446H0z"/><g style="animation-duration:15s;animation-iteration-count:infinite;animation-name:p;animation-timing-function:steps(1,end)"><svg width="1296"><svg><use xlink:href="#a"/><use xlink:href="#b" x="-.004"/></svg><svg x="108"><use xlink:href="#a"/><use xlink:href="#b" x="-.004" y="6.488"/><use xlink:href="#1"/><use xlink:href="#2" y="2.171"/><use xlink:href="#3" y="4.342"/></svg><svg x="216"><use xlink:href="#a"/><use xlink:href="#b" x="-.004" y="13.001"/><use xlink:href="#1"/><use xlink:href="#2" y="2.171"/><use xlink:href="#3" y="4.342"/><use xlink:href="#4" y="6.513"/><use xlink:href="#5" y="8.684"/></svg><svg x="324"><use xlink:href="#a"/><use xlink:href="#b" x="-.004" y="15.172"/><use xlink:href="#1"/><use xlink:href="#2" y="2.171"/><use xlink:href="#3" y="4.342"/><use xlink:href="#4" y="6.513"/><use xlink:href="#5" y="8.684"/><use xlink:href="#6" y="13.026"/></svg><svg x="432"><use xlink:href="#a"/><use xlink:href="#b" x="-.004" y="17.343"/><use xlink:href="#1"/><use xlink:href="#2" y="2.171"/><use xlink:href="#3" y="4.342"/><use xlink:href="#4" y="6.513"/><use xlink:href="#5" y="8.684"/><use xlink:href="#6" y="13.026"/></svg><svg x="540"><use xlink:href="#a"/><use xlink:href="#b" x="-.004" y="21.685"/><use xlink:href="#1"/><use xlink:href="#2" y="2.171"/><use xlink:href="#3" y="4.342"/><use xlink:href="#4" y="6.513"/><use xlink:href="#5" y="8.684"/><use xlink:href="#6" y="13.026"/><use xlink:href="#7" y="17.368"/><use xlink:href="#8" y="19.539"/></svg><svg x="648"><use xlink:href="#a"/><use xlink:href="#b" x="-.004" y="26.027"/><use xlink:href="#1"/><use xlink:href="#2" y="2.171"/><use xlink:href="#3" y="4.342"/><use xlink:href="#4" y="6.513"/><use xlink:href="#5" y="8.684"/><use xlink:href="#6" y="13.026"/><use xlink:href="#7" y="17.368"/><use xlink:href="#8" y="19.539"/><use xlink:href="#9" y="21.71"/><use xlink:href="#8" y="23.881"/></svg><svg x="756"><use xlink:href="#a"/><use xlink:href="#b" x="-.004" y="30.369"/><use xlink:href="#1"/><use xlink:href="#2" y="2.171"/><use xlink:href="#3" y="4.342"/><use xlink:href="#4" y="6.513"/><use xlink:href="#5" y="8.684"/><use xlink:href="#6" y="13.026"/><use xlink:href="#7" y="17.368"/><use xlink:href="#8" y="19.539"/><use xlink:href="#9" y="21.71"/><use xlink:href="#8" y="23.881"/><use xlink:href="#10" y="26.052"/><use xlink:href="#8" y="28.223"/></svg><svg x="864"><use xlink:href="#a"/><use xlink:href="#b" x="-.004" y="34.711"/><use xlink:href="#1"/><use xlink:href="#2" y="2.171"/><use xlink:href="#3" y="4.342"/><use xlink:href="#4" y="6.513"/><use xlink:href="#5" y="8.684"/><use xlink:href="#6" y="13.026"/><use xlink:href="#7" y="17.368"/><use xlink:href="#8" y="19.539"/><use xlink:href="#9" y="21.71"/><use xlink:href="#8" y="23.881"/><use xlink:href="#10" y="26.052"/><use xlink:href="#8" y="28.223"/><use xlink:href="#11" y="30.394"/><use xlink:href="#8" y="32.565"/></svg><svg x="972"><use xlink:href="#a"/><use xlink:href="#b" x="-.004" y="39.053"/><use xlink:href="#1"/><use xlink:href="#2" y="2.171"/><use xlink:href="#3" y="4.342"/><use xlink:href="#4" y="6.513"/><use xlink:href="#5" y="8.684"/><use xlink:href="#6" y="13.026"/><use xlink:href="#7" y="17.368"/><use xlink:href="#8" y="19.539"/><use xlink:href="#9" y="21.71"/><use xlink:href="#8" y="23.881"/><use xlink:href="#10" y="26.052"/><use xlink:href="#8" y="28.223"/><use xlink:href="#11" y="30.394"/><use xlink:href="#8" y="32.565"/><use xlink:href="#12" y="34.736"/><use xlink:href="#13" y="36.907"/></svg><svg x="1080"><use xlink:href="#a"/><use xlink:href="#b" x="-.004" y="45.566"/><use xlink:href="#1"/><use xlink:href="#2" y="2.171"/><use xlink:href="#3" y="4.342"/><use xlink:href="#4" y="6.513"/><use xlink:href="#5" y="8.684"/><use xlink:href="#6" y="13.026"/><use xlink:href="#7" y="17.368"/><use xlink:href="#8" y="19.539"/><use xlink:href="#9" y="21.71"/><use xlink:href="#8" y="23.881"/><use xlink:href="#10" y="26.052"/><use xlink:href="#8" y="28.223"/><use xlink:href="#11" y="30.394"/><use xlink:href="#8" y="32.565"/><use xlink:href="#12" y="34.736"/><use xlink:href="#13" y="36.907"/><use xlink:href="#14" y="41.249"/><use xlink:href="#15" y="43.42"/></svg><svg x="1188"><use xlink:href="#a"/><use xlink:href="#b" x="-.004" y="45.566"/><use xlink:href="#1"/><use xlink:href="#2" y="2.171"/><use xlink:href="#3" y="4.342"/><use xlink:href="#4" y="6.513"/><use xlink:href="#5" y="8.684"/><use xlink:href="#6" y="13.026"/><use xlink:href="#7" y="17.368"/><use xlink:href="#8" y="19.539"/><use xlink:href="#9" y="21.71"/><use xlink:href="#8" y="23.881"/><use xlink:href="#10" y="26.052"/><use xlink:href="#8" y="28.223"/><use xlink:href="#11" y="30.394"/><use xlink:href="#8" y="32.565"/><use xlink:href="#12" y="34.736"/><use xlink:href="#13" y="36.907"/><use xlink:href="#14" y="41.249"/><use xlink:href="#15" y="43.42"/></svg></svg></g></g></svg></svg>